<svg width="43" height="43" viewBox="0 0 43 43" fill="none" xmlns="http://www.w3.org/2000/svg">
<path d="M36.2812 1.51172H6.71875C3.01392 1.51172 0 4.52564 0 8.23047V31.7461C0 35.4509 3.01392 38.4648 6.71875 38.4648H22.6758C23.3165 38.4648 23.9014 38.1004 24.1839 37.5249C24.466 36.9498 24.3965 36.2639 24.0041 35.7573L19.6107 30.0792L31.7878 14.5903L39.6406 23.9585V26.791C39.6406 27.7188 40.3925 28.4707 41.3203 28.4707C42.2481 28.4707 43 27.7188 43 26.791V8.23047C43 4.52564 39.9861 1.51172 36.2812 1.51172V1.51172ZM33.0334 10.8468C32.7083 10.459 32.2264 10.2376 31.7198 10.2464C31.2136 10.2543 30.7383 10.4898 30.4256 10.8878L17.4907 27.3399L13.0861 21.648C12.7679 21.2366 12.2775 20.9961 11.7578 20.9961C11.7572 20.9961 11.7562 20.9961 11.7555 20.9961C11.2349 20.9968 10.7438 21.2389 10.4265 21.6516L6.7299 26.457C6.16432 27.1926 6.30178 28.247 7.03697 28.8125C7.77249 29.3785 8.82689 29.2407 9.39247 28.5055L11.7617 25.4256L19.2521 35.1055H6.71875C4.8665 35.1055 3.35938 33.5983 3.35938 31.7461V8.23047C3.35938 6.37822 4.8665 4.87109 6.71875 4.87109H36.2812C38.1335 4.87109 39.6406 6.37822 39.6406 8.23047V18.7292L33.0334 10.8468ZM11.7578 7.55859C8.97911 7.55859 6.71875 9.81896 6.71875 12.5977C6.71875 15.3764 8.97911 17.6367 11.7578 17.6367C14.5365 17.6367 16.7969 15.3764 16.7969 12.5977C16.7969 9.81896 14.5365 7.55859 11.7578 7.55859ZM11.7578 14.2773C10.8317 14.2773 10.0781 13.5238 10.0781 12.5977C10.0781 11.6715 10.8317 10.918 11.7578 10.918C12.6839 10.918 13.4375 11.6715 13.4375 12.5977C13.4375 13.5238 12.6839 14.2773 11.7578 14.2773ZM43 33.5098C43 34.4375 42.2481 35.1895 41.3203 35.1895H36.7012V39.8086C36.7012 40.7364 35.9492 41.4883 35.0215 41.4883C34.0937 41.4883 33.3418 40.7364 33.3418 39.8086V35.1895H28.7227C27.7949 35.1895 27.043 34.4375 27.043 33.5098C27.043 32.582 27.7949 31.8301 28.7227 31.8301H33.3418V27.2109C33.3418 26.2832 34.0937 25.5313 35.0215 25.5313C35.9492 25.5313 36.7012 26.2832 36.7012 27.2109V31.8301H41.3203C42.2481 31.8301 43 32.582 43 33.5098Z" fill="black" fill-opacity="0.3"/>
</svg>
