<svg width="24" height="24" viewBox="0 0 24 24" fill="none" xmlns="http://www.w3.org/2000/svg">
<path d="M10.8 14.4H8.4C8.4 8.436 13.236 3.6 19.2 3.6V6C14.556 6 10.8 9.756 10.8 14.4ZM19.2 10.8V8.4C15.888 8.4 13.2 11.088 13.2 14.4H15.6C15.6 12.408 17.208 10.8 19.2 10.8ZM6 2.4C6 1.068 4.932 0 3.6 0C2.268 0 1.2 1.068 1.2 2.4C1.2 3.732 2.268 4.8 3.6 4.8C4.932 4.8 6 3.732 6 2.4ZM11.34 3H8.94C8.652 4.704 7.188 6 5.4 6H1.8C0.804 6 0 6.804 0 7.8V10.8H7.2V8.088C9.432 7.38 11.1 5.412 11.34 3ZM20.4 18C21.732 18 22.8 16.932 22.8 15.6C22.8 14.268 21.732 13.2 20.4 13.2C19.068 13.2 18 14.268 18 15.6C18 16.932 19.068 18 20.4 18ZM22.2 19.2H18.6C16.812 19.2 15.348 17.904 15.06 16.2H12.66C12.9 18.612 14.568 20.58 16.8 21.288V24H24V21C24 20.004 23.196 19.2 22.2 19.2Z" fill="#6A707D"/>
</svg>
