<svg width="24" height="24" viewBox="0 0 24 24" fill="none" xmlns="http://www.w3.org/2000/svg">
<path d="M7.49561 18.3038C6.96753 17.931 6.4942 17.4954 6.0791 16.9999C4.90613 15.6422 4.21948 13.8755 4.21948 11.9863C4.21948 7.9682 7.29089 4.65198 11.2524 4.28448C11.6202 4.25024 11.9013 4.22406 12.2692 4.18982C11.5472 2.72461 10.9958 1.60583 10.2739 0.140625C3.66614 1.36176 0 6.51691 0 11.9866C0 15.1194 1.22937 18.2133 3.58173 20.5223C4.14221 21.0641 4.74353 21.5468 5.38074 21.9662L4.36176 23.7318C7.0481 23.5582 9.09888 23.4258 11.785 23.2524C10.5919 20.8394 9.68097 18.9972 8.48785 16.5844C8.12878 17.2066 7.85468 17.6816 7.49561 18.3038Z" fill="#6A707D"/>
<path d="M18.6165 2.00214C18.9854 1.36273 19.267 0.874573 19.6362 0.235352L12.2127 0.71875C13.4055 3.1308 14.316 4.97247 15.5086 7.3847C15.868 6.76251 16.1423 6.28754 16.5016 5.66534C18.6088 7.1507 19.7735 9.54663 19.7735 11.998C19.7735 15.9453 16.7632 19.3181 12.7455 19.6846C12.377 19.7183 12.0953 19.7441 11.7266 19.778C12.4491 21.2441 13.001 22.3636 13.7235 23.8298C20.3666 22.5795 24.0005 17.4128 24.0005 12.0019C24.0005 8.19458 22.168 4.3338 18.6165 2.00214Z" fill="#6A707D"/>
<path d="M12 11.2815C11.612 11.2815 11.2969 11.5966 11.2969 11.9846C11.2969 12.3724 11.612 12.6877 12 12.6877C12.388 12.6877 12.7031 12.3724 12.7031 11.9846C12.7031 11.5966 12.388 11.2815 12 11.2815Z" fill="#6A707D"/>
<path d="M9.89032 5.65649V7.55566C9.66583 7.66296 9.44116 7.79169 9.22015 7.9444L7.57422 6.99335C6.81104 8.31573 6.22821 9.32538 5.46484 10.6476C6.05518 10.9885 6.50598 11.2489 7.09631 11.5897C7.07159 11.8641 7.07159 12.1049 7.09631 12.3794C6.50598 12.7203 6.05536 12.9805 5.46484 13.3215C6.22821 14.6439 6.81104 15.6535 7.57422 16.9759L9.22015 16.0248C9.42578 16.1669 9.64899 16.298 9.89032 16.4134V18.3127H14.1091C14.1091 17.6255 14.1091 17.1008 14.1091 16.4134C14.3336 16.3061 14.5582 16.1776 14.7792 16.0248C15.3749 16.3689 15.8295 16.6317 16.4252 16.9759C17.1884 15.6535 17.7712 14.6439 18.5345 13.3215C17.9442 12.9805 17.4934 12.7203 16.9031 12.3794C16.9278 12.1049 16.9278 11.8641 16.9031 11.5897C17.4934 11.2489 17.944 10.9885 18.5345 10.6476C17.7712 9.32538 17.1884 8.31573 16.4252 6.99335L14.7792 7.9444C14.5736 7.80231 14.3504 7.67102 14.1091 7.55566V5.65649H9.89032ZM11.9997 14.094C10.8364 14.094 9.89032 13.1477 9.89032 11.9846C9.89032 10.8214 10.8364 9.87524 11.9997 9.87524C13.163 9.87524 14.1091 10.8214 14.1091 11.9846C14.1091 13.1477 13.163 14.094 11.9997 14.094Z" fill="#6A707D"/>
</svg>
