<svg width="97" height="75" viewBox="0 0 97 75" fill="none" xmlns="http://www.w3.org/2000/svg">
<path d="M19.987 62.056C19.6883 62.056 19.539 61.902 19.539 61.594V57.464C19.539 57.1607 19.6883 57.009 19.987 57.009C20.2857 57.009 20.435 57.1607 20.435 57.464V59.158H21.135L22.346 57.24C22.4253 57.114 22.521 57.0417 22.633 57.023C22.745 56.9997 22.8477 57.016 22.941 57.072C23.039 57.1233 23.1043 57.2027 23.137 57.31C23.1697 57.4127 23.144 57.527 23.06 57.653L21.968 59.319C22.1547 59.403 22.318 59.522 22.458 59.676C22.6027 59.8253 22.731 60.0143 22.843 60.243L23.417 61.419C23.4917 61.5683 23.5033 61.6967 23.452 61.804C23.4053 61.9067 23.3283 61.979 23.221 62.021C23.1137 62.063 23.0017 62.0653 22.885 62.028C22.773 61.9907 22.6843 61.9043 22.619 61.769L22.066 60.579C21.954 60.3363 21.8187 60.1637 21.66 60.061C21.506 59.9583 21.3123 59.907 21.079 59.907H20.435V61.594C20.435 61.902 20.2857 62.056 19.987 62.056ZM24.8974 63.316C24.7387 63.316 24.6291 63.2577 24.5684 63.141C24.5077 63.0243 24.5101 62.8913 24.5754 62.742L24.9744 61.86L23.7774 59.102C23.7121 58.948 23.7121 58.8127 23.7774 58.696C23.8427 58.5793 23.9711 58.521 24.1624 58.521C24.2697 58.521 24.3561 58.5467 24.4214 58.598C24.4867 58.6447 24.5451 58.7357 24.5964 58.871L25.4364 60.971L26.2974 58.864C26.3487 58.7333 26.4094 58.6447 26.4794 58.598C26.5494 58.5467 26.6427 58.521 26.7594 58.521C26.9087 58.521 27.0137 58.5793 27.0744 58.696C27.1351 58.8127 27.1327 58.9457 27.0674 59.095L25.3664 62.98C25.3057 63.1107 25.2404 63.1993 25.1704 63.246C25.1004 63.2927 25.0094 63.316 24.8974 63.316ZM28.2437 62.056C27.9497 62.056 27.8027 61.9067 27.8027 61.608V59.067C27.8027 58.7403 27.966 58.577 28.2927 58.577H30.5537C30.8803 58.577 31.0437 58.7403 31.0437 59.067V61.608C31.0437 61.9067 30.8967 62.056 30.6027 62.056C30.3133 62.056 30.1687 61.9067 30.1687 61.608V59.263H28.6777V61.608C28.6777 61.9067 28.533 62.056 28.2437 62.056ZM32.4469 62.056C32.1763 62.056 32.0409 61.8997 32.0409 61.587V58.941C32.0409 58.661 32.1739 58.521 32.4399 58.521C32.7013 58.521 32.8319 58.661 32.8319 58.941V60.859L34.3789 58.801C34.4303 58.7357 34.4933 58.6727 34.5679 58.612C34.6426 58.5513 34.7453 58.521 34.8759 58.521C35.1419 58.521 35.2749 58.675 35.2749 58.983V61.636C35.2749 61.916 35.1443 62.056 34.8829 62.056C34.6169 62.056 34.4839 61.916 34.4839 61.636V59.718L32.9369 61.776C32.8903 61.8413 32.8296 61.9043 32.7549 61.965C32.6849 62.0257 32.5823 62.056 32.4469 62.056ZM38.5999 62C38.3106 62 38.1659 61.8553 38.1659 61.566V59.011C38.1659 58.7217 38.3106 58.577 38.5999 58.577H40.0139C40.4573 58.577 40.7746 58.6563 40.9659 58.815C41.1619 58.969 41.2599 59.1883 41.2599 59.473C41.2599 59.6503 41.2109 59.8043 41.1129 59.935C41.0149 60.0657 40.8796 60.1613 40.7069 60.222C40.9309 60.2733 41.0989 60.3713 41.2109 60.516C41.3229 60.6607 41.3789 60.8357 41.3789 61.041C41.3789 61.335 41.2669 61.5683 41.0429 61.741C40.8189 61.9137 40.4946 62 40.0699 62H38.5999ZM38.9779 59.984H39.9299C40.0979 59.984 40.2286 59.9467 40.3219 59.872C40.4153 59.7927 40.4619 59.683 40.4619 59.543C40.4619 59.403 40.4153 59.298 40.3219 59.228C40.2286 59.1533 40.0979 59.116 39.9299 59.116H38.9779V59.984ZM38.9779 61.461H39.9929C40.3849 61.461 40.5809 61.3047 40.5809 60.992C40.5809 60.6793 40.3849 60.523 39.9929 60.523H38.9779V61.461ZM43.7335 62.07C43.3741 62.07 43.0615 61.9977 42.7955 61.853C42.5295 61.7037 42.3241 61.4937 42.1795 61.223C42.0348 60.9523 41.9625 60.635 41.9625 60.271C41.9625 59.907 42.0348 59.5943 42.1795 59.333C42.3241 59.067 42.5295 58.864 42.7955 58.724C43.0615 58.5793 43.3741 58.507 43.7335 58.507C43.8875 58.507 44.0531 58.528 44.2305 58.57C44.4125 58.612 44.5828 58.682 44.7415 58.78C44.8348 58.836 44.8885 58.9083 44.9025 58.997C44.9211 59.0857 44.9095 59.1673 44.8675 59.242C44.8301 59.3167 44.7718 59.3703 44.6925 59.403C44.6178 59.4357 44.5315 59.424 44.4335 59.368C44.2188 59.2467 44.0111 59.186 43.8105 59.186C43.5071 59.186 43.2715 59.2817 43.1035 59.473C42.9401 59.6597 42.8585 59.928 42.8585 60.278C42.8585 60.6233 42.9401 60.8963 43.1035 61.097C43.2715 61.293 43.5071 61.391 43.8105 61.391C44.0111 61.391 44.2188 61.3327 44.4335 61.216C44.5315 61.16 44.6178 61.1483 44.6925 61.181C44.7671 61.2137 44.8208 61.2697 44.8535 61.349C44.8861 61.4237 44.8931 61.5053 44.8745 61.594C44.8558 61.678 44.8021 61.748 44.7135 61.804C44.5595 61.8973 44.3961 61.965 44.2235 62.007C44.0508 62.049 43.8875 62.07 43.7335 62.07ZM47.2428 62.07C46.8554 62.07 46.5218 61.9977 46.2418 61.853C45.9618 61.7083 45.7448 61.503 45.5908 61.237C45.4414 60.971 45.3668 60.656 45.3668 60.292C45.3668 59.9373 45.4391 59.627 45.5838 59.361C45.7331 59.095 45.9361 58.8873 46.1928 58.738C46.4541 58.584 46.7504 58.507 47.0818 58.507C47.5671 58.507 47.9498 58.661 48.2298 58.969C48.5144 59.277 48.6568 59.697 48.6568 60.229C48.6568 60.4017 48.5448 60.488 48.3208 60.488H46.2068C46.2721 61.0993 46.6221 61.405 47.2568 61.405C47.3781 61.405 47.5134 61.391 47.6628 61.363C47.8168 61.3303 47.9614 61.2767 48.0968 61.202C48.2181 61.132 48.3208 61.111 48.4048 61.139C48.4888 61.1623 48.5471 61.2113 48.5798 61.286C48.6171 61.3607 48.6218 61.4447 48.5938 61.538C48.5704 61.6267 48.5051 61.7037 48.3978 61.769C48.2344 61.8717 48.0454 61.9487 47.8308 62C47.6208 62.0467 47.4248 62.07 47.2428 62.07ZM47.1168 59.102C46.8601 59.102 46.6524 59.1813 46.4938 59.34C46.3351 59.4987 46.2394 59.7133 46.2068 59.984H47.9288C47.9101 59.6993 47.8308 59.4823 47.6908 59.333C47.5554 59.179 47.3641 59.102 47.1168 59.102ZM47.7538 57.849C47.4644 57.849 47.3198 57.7043 47.3198 57.415C47.3198 57.1303 47.4644 56.988 47.7538 56.988C48.0384 56.988 48.1808 57.1303 48.1808 57.415C48.1808 57.7043 48.0384 57.849 47.7538 57.849ZM46.4308 57.849C46.2954 57.849 46.1881 57.8117 46.1088 57.737C46.0341 57.6623 45.9968 57.555 45.9968 57.415C45.9968 57.2797 46.0341 57.1747 46.1088 57.1C46.1881 57.0253 46.2954 56.988 46.4308 56.988C46.7201 56.988 46.8648 57.1303 46.8648 57.415C46.8648 57.7043 46.7201 57.849 46.4308 57.849ZM52.9068 62.07C52.5521 62.07 52.2441 61.9977 51.9828 61.853C51.7215 61.7083 51.5185 61.503 51.3738 61.237C51.2291 60.9663 51.1568 60.649 51.1568 60.285C51.1568 59.921 51.2291 59.606 51.3738 59.34C51.5185 59.074 51.7215 58.8687 51.9828 58.724C52.2441 58.5793 52.5521 58.507 52.9068 58.507C53.2615 58.507 53.5695 58.5793 53.8308 58.724C54.0921 58.8687 54.2951 59.074 54.4398 59.34C54.5845 59.606 54.6568 59.921 54.6568 60.285C54.6568 60.649 54.5845 60.9663 54.4398 61.237C54.2951 61.503 54.0921 61.7083 53.8308 61.853C53.5695 61.9977 53.2615 62.07 52.9068 62.07ZM52.9068 61.405C53.1681 61.405 53.3781 61.3117 53.5368 61.125C53.6955 60.9337 53.7748 60.6537 53.7748 60.285C53.7748 59.9117 53.6955 59.634 53.5368 59.452C53.3781 59.2653 53.1681 59.172 52.9068 59.172C52.6455 59.172 52.4355 59.2653 52.2768 59.452C52.1181 59.634 52.0388 59.9117 52.0388 60.285C52.0388 60.6537 52.1181 60.9337 52.2768 61.125C52.4355 61.3117 52.6455 61.405 52.9068 61.405ZM55.9087 62.056C55.6147 62.056 55.4677 61.9067 55.4677 61.608V58.962C55.4677 58.668 55.6147 58.521 55.9087 58.521C56.198 58.521 56.3427 58.668 56.3427 58.962V59.9H57.8547V58.962C57.8547 58.668 57.9994 58.521 58.2887 58.521C58.5827 58.521 58.7297 58.668 58.7297 58.962V61.608C58.7297 61.9067 58.5827 62.056 58.2887 62.056C57.9994 62.056 57.8547 61.9067 57.8547 61.608V60.586H56.3427V61.608C56.3427 61.9067 56.198 62.056 55.9087 62.056ZM62.4705 62.056C62.1812 62.056 62.0365 61.9067 62.0365 61.608V59.263H60.9585V59.662C60.9585 60.3107 60.8768 60.824 60.7135 61.202C60.5548 61.58 60.2935 61.846 59.9295 62C59.8035 62.0513 59.6938 62.0583 59.6005 62.021C59.5072 61.9837 59.4372 61.923 59.3905 61.839C59.3485 61.7503 59.3392 61.657 59.3625 61.559C59.3858 61.461 59.4558 61.3793 59.5725 61.314C59.8058 61.1787 59.9598 60.978 60.0345 60.712C60.1138 60.446 60.1535 60.0867 60.1535 59.634V59.067C60.1535 58.7403 60.3168 58.577 60.6435 58.577H62.4215C62.7482 58.577 62.9115 58.7403 62.9115 59.067V61.608C62.9115 61.9067 62.7645 62.056 62.4705 62.056ZM65.0373 62.07C64.7899 62.07 64.5683 62.0233 64.3723 61.93C64.1809 61.832 64.0293 61.7013 63.9173 61.538C63.8099 61.3747 63.7563 61.1903 63.7563 60.985C63.7563 60.733 63.8216 60.5347 63.9523 60.39C64.0829 60.2407 64.2953 60.1333 64.5893 60.068C64.8833 60.0027 65.2776 59.97 65.7723 59.97H66.0173V59.823C66.0173 59.5897 65.9659 59.4217 65.8633 59.319C65.7606 59.2163 65.5879 59.165 65.3453 59.165C65.2099 59.165 65.0629 59.1813 64.9043 59.214C64.7503 59.2467 64.5869 59.3027 64.4143 59.382C64.3023 59.4333 64.2089 59.4403 64.1343 59.403C64.0596 59.361 64.0083 59.298 63.9803 59.214C63.9569 59.1253 63.9616 59.0367 63.9943 58.948C64.0316 58.8593 64.1039 58.794 64.2113 58.752C64.4259 58.6633 64.6313 58.6003 64.8273 58.563C65.0279 58.5257 65.2099 58.507 65.3733 58.507C65.8726 58.507 66.2436 58.6237 66.4863 58.857C66.7289 59.0857 66.8503 59.4427 66.8503 59.928V61.608C66.8503 61.9067 66.7149 62.056 66.4443 62.056C66.1689 62.056 66.0313 61.9067 66.0313 61.608V61.454C65.9519 61.6453 65.8259 61.797 65.6533 61.909C65.4806 62.0163 65.2753 62.07 65.0373 62.07ZM65.2193 61.468C65.4479 61.468 65.6369 61.3887 65.7863 61.23C65.9403 61.0713 66.0173 60.8707 66.0173 60.628V60.474H65.7793C65.3406 60.474 65.0349 60.509 64.8623 60.579C64.6943 60.6443 64.6103 60.7657 64.6103 60.943C64.6103 61.097 64.6639 61.223 64.7713 61.321C64.8786 61.419 65.0279 61.468 65.2193 61.468ZM68.2331 62.056C67.9624 62.056 67.8271 61.8997 67.8271 61.587V58.941C67.8271 58.661 67.9601 58.521 68.2261 58.521C68.4874 58.521 68.6181 58.661 68.6181 58.941V60.859L70.1651 58.801C70.2164 58.7357 70.2794 58.6727 70.3541 58.612C70.4287 58.5513 70.5314 58.521 70.6621 58.521C70.9281 58.521 71.0611 58.675 71.0611 58.983V61.636C71.0611 61.916 70.9304 62.056 70.6691 62.056C70.4031 62.056 70.2701 61.916 70.2701 61.636V59.718L68.7231 61.776C68.6764 61.8413 68.6157 61.9043 68.5411 61.965C68.4711 62.0257 68.3684 62.056 68.2331 62.056ZM69.4441 58.143C69.1547 58.143 68.9027 58.0777 68.6881 57.947C68.4734 57.8117 68.3217 57.6227 68.2331 57.38C68.1677 57.2027 68.2121 57.0883 68.3661 57.037C68.5014 56.9903 68.6111 57.0487 68.6951 57.212C68.8491 57.5107 69.0987 57.66 69.4441 57.66C69.7894 57.66 70.0391 57.5107 70.1931 57.212C70.2771 57.0487 70.3867 56.9903 70.5221 57.037C70.5921 57.0603 70.6387 57.1023 70.6621 57.163C70.6901 57.219 70.6831 57.2913 70.6411 57.38C70.5244 57.6227 70.3681 57.8117 70.1721 57.947C69.9761 58.0777 69.7334 58.143 69.4441 58.143ZM72.4927 62.056C72.1987 62.056 72.0517 61.9067 72.0517 61.608V58.962C72.0517 58.668 72.1987 58.521 72.4927 58.521C72.782 58.521 72.9267 58.668 72.9267 58.962V59.9H74.4387V58.962C74.4387 58.668 74.5834 58.521 74.8727 58.521C75.1667 58.521 75.3137 58.668 75.3137 58.962V61.608C75.3137 61.9067 75.1667 62.056 74.8727 62.056C74.5834 62.056 74.4387 61.9067 74.4387 61.608V60.586H72.9267V61.608C72.9267 61.9067 72.782 62.056 72.4927 62.056ZM76.6885 60.579C76.5065 60.579 76.4085 60.4717 76.3945 60.257L76.1845 57.583C76.1705 57.4103 76.2078 57.2727 76.2965 57.17C76.3851 57.0627 76.5158 57.009 76.6885 57.009C76.8565 57.009 76.9825 57.0627 77.0665 57.17C77.1551 57.2727 77.1925 57.4103 77.1785 57.583L76.9685 60.257C76.9545 60.4717 76.8611 60.579 76.6885 60.579ZM76.6885 62.035C76.5298 62.035 76.4015 61.986 76.3035 61.888C76.2101 61.79 76.1635 61.664 76.1635 61.51C76.1635 61.3607 76.2101 61.2393 76.3035 61.146C76.4015 61.048 76.5298 60.999 76.6885 60.999C76.8518 60.999 76.9778 61.048 77.0665 61.146C77.1598 61.2393 77.2065 61.3607 77.2065 61.51C77.2065 61.664 77.1598 61.79 77.0665 61.888C76.9778 61.986 76.8518 62.035 76.6885 62.035Z" fill="black"/>
<path d="M20.696 55C20.344 55 20.0773 54.9093 19.896 54.728C19.7253 54.536 19.6507 54.2907 19.672 53.992C19.704 53.6933 19.8373 53.384 20.072 53.064L25.704 45.432H20.536C19.928 45.432 19.624 45.144 19.624 44.568C19.624 44.0027 19.928 43.72 20.536 43.72H27.16C27.512 43.72 27.7733 43.816 27.944 44.008C28.1253 44.1893 28.2053 44.4293 28.184 44.728C28.1627 45.016 28.0293 45.3253 27.784 45.656L22.152 53.288H27.56C28.168 53.288 28.472 53.5707 28.472 54.136C28.472 54.712 28.168 55 27.56 55H20.696ZM32.4033 55.16C30.4833 55.16 29.5233 54.0827 29.5233 51.928V48.056C29.5233 47.384 29.8539 47.048 30.5153 47.048C31.1873 47.048 31.5233 47.384 31.5233 48.056V51.96C31.5233 52.5147 31.6353 52.9253 31.8593 53.192C32.0833 53.4587 32.4406 53.592 32.9313 53.592C33.4646 53.592 33.9019 53.4107 34.2433 53.048C34.5846 52.6747 34.7553 52.184 34.7553 51.576V48.056C34.7553 47.384 35.0859 47.048 35.7473 47.048C36.4193 47.048 36.7552 47.384 36.7552 48.056V54.104C36.7552 54.7867 36.4299 55.128 35.7793 55.128C35.1286 55.128 34.8033 54.7867 34.8033 54.104V53.832C34.2806 54.7173 33.4806 55.16 32.4033 55.16ZM39.8609 55.128C39.1995 55.128 38.8689 54.7867 38.8689 54.104V48.056C38.8689 47.384 39.1942 47.048 39.8449 47.048C40.4955 47.048 40.8209 47.384 40.8209 48.056V48.376C41.0555 47.9493 41.3809 47.6187 41.7969 47.384C42.2129 47.1387 42.6929 47.016 43.2369 47.016C44.4102 47.016 45.1782 47.528 45.5409 48.552C45.7862 48.072 46.1382 47.6987 46.5969 47.432C47.0555 47.1547 47.5782 47.016 48.1649 47.016C49.9249 47.016 50.8049 48.088 50.8049 50.232V54.104C50.8049 54.7867 50.4689 55.128 49.7969 55.128C49.1355 55.128 48.8049 54.7867 48.8049 54.104V50.312C48.8049 49.7147 48.7035 49.2773 48.5009 49C48.3089 48.7227 47.9782 48.584 47.5089 48.584C46.9862 48.584 46.5755 48.7707 46.2769 49.144C45.9782 49.5067 45.8289 50.0133 45.8289 50.664V54.104C45.8289 54.7867 45.4982 55.128 44.8369 55.128C44.1649 55.128 43.8289 54.7867 43.8289 54.104V50.312C43.8289 49.7147 43.7275 49.2773 43.5249 49C43.3329 48.7227 43.0075 48.584 42.5489 48.584C42.0262 48.584 41.6155 48.7707 41.3169 49.144C41.0182 49.5067 40.8689 50.0133 40.8689 50.664V54.104C40.8689 54.7867 40.5329 55.128 39.8609 55.128ZM53.5241 55C53.1721 55 52.9055 54.9093 52.7241 54.728C52.5535 54.536 52.4788 54.2907 52.5001 53.992C52.5321 53.6933 52.6655 53.384 52.9001 53.064L58.5321 45.432H53.3641C52.7561 45.432 52.4521 45.144 52.4521 44.568C52.4521 44.0027 52.7561 43.72 53.3641 43.72H59.9881C60.3401 43.72 60.6015 43.816 60.7721 44.008C60.9535 44.1893 61.0335 44.4293 61.0121 44.728C60.9908 45.016 60.8575 45.3253 60.6121 45.656L54.9801 53.288H60.3881C60.9961 53.288 61.3001 53.5707 61.3001 54.136C61.3001 54.712 60.9961 55 60.3881 55H53.5241ZM64.9754 55.16C64.41 55.16 63.9034 55.0533 63.4554 54.84C63.018 54.616 62.6714 54.3173 62.4154 53.944C62.17 53.5707 62.0474 53.1493 62.0474 52.68C62.0474 52.104 62.1967 51.6507 62.4954 51.32C62.794 50.9787 63.2794 50.7333 63.9514 50.584C64.6234 50.4347 65.5247 50.36 66.6554 50.36H67.2154V50.024C67.2154 49.4907 67.098 49.1067 66.8634 48.872C66.6287 48.6373 66.234 48.52 65.6794 48.52C65.37 48.52 65.034 48.5573 64.6714 48.632C64.3194 48.7067 63.946 48.8347 63.5514 49.016C63.2954 49.1333 63.082 49.1493 62.9114 49.064C62.7407 48.968 62.6234 48.824 62.5594 48.632C62.506 48.4293 62.5167 48.2267 62.5914 48.024C62.6767 47.8213 62.842 47.672 63.0874 47.576C63.578 47.3733 64.0474 47.2293 64.4954 47.144C64.954 47.0587 65.37 47.016 65.7434 47.016C66.8847 47.016 67.7327 47.2827 68.2874 47.816C68.842 48.3387 69.1194 49.1547 69.1194 50.264V54.104C69.1194 54.7867 68.81 55.128 68.1914 55.128C67.562 55.128 67.2474 54.7867 67.2474 54.104V53.752C67.066 54.1893 66.778 54.536 66.3834 54.792C65.9887 55.0373 65.5194 55.16 64.9754 55.16ZM65.3914 53.784C65.914 53.784 66.346 53.6027 66.6874 53.24C67.0394 52.8773 67.2154 52.4187 67.2154 51.864V51.512H66.6714C65.6687 51.512 64.97 51.592 64.5754 51.752C64.1914 51.9013 63.9994 52.1787 63.9994 52.584C63.9994 52.936 64.122 53.224 64.3674 53.448C64.6127 53.672 64.954 53.784 65.3914 53.784ZM72.1414 55.128C71.48 55.128 71.1494 54.7867 71.1494 54.104V44.6C71.1494 43.928 71.48 43.592 72.1414 43.592C72.8134 43.592 73.1494 43.928 73.1494 44.6V50.504H73.1814L75.8214 47.72C76.0347 47.5067 76.2214 47.3413 76.3814 47.224C76.5414 47.1067 76.76 47.048 77.0374 47.048C77.3147 47.048 77.5227 47.1227 77.6614 47.272C77.8107 47.4107 77.8854 47.5813 77.8854 47.784C77.8854 47.9867 77.7894 48.1893 77.5974 48.392L75.1974 50.92L77.8694 53.8C78.0614 54.0027 78.1467 54.2107 78.1254 54.424C78.1147 54.6267 78.0294 54.7973 77.8694 54.936C77.7094 55.064 77.5067 55.128 77.2614 55.128C76.9627 55.128 76.7227 55.0693 76.5414 54.952C76.3707 54.8347 76.1787 54.6587 75.9654 54.424L73.1814 51.512H73.1494V54.104C73.1494 54.7867 72.8134 55.128 72.1414 55.128Z" fill="black"/>
<path d="M54.5835 6.04664C54.5835 3.25946 52.0029 1 48.8196 1C45.6363 1 43.0557 3.25946 43.0557 6.04664V13.8107C43.0557 16.5979 45.6363 18.8573 48.8196 18.8573C52.0029 18.8573 54.5835 16.5979 54.5835 13.8107V6.04664Z" stroke="black" stroke-width="0.5"/>
<path d="M34.09 18.7741C34.09 16.7067 32.3696 15.0308 30.2474 15.0308C28.1252 15.0308 26.4048 16.7067 26.4048 18.7741V30.4202C26.4048 32.4877 28.1252 34.1636 30.2474 34.1636C32.3696 34.1636 34.09 32.4877 34.09 30.4202V18.7741Z" stroke="black" stroke-width="0.5"/>
<path d="M72.5159 21.547C72.5159 19.3571 70.5088 17.5818 68.0328 17.5818C65.5569 17.5818 63.5498 19.3571 63.5498 21.547V30.1984C63.5498 32.3883 65.5569 34.1636 68.0328 34.1636C70.5088 34.1636 72.5159 32.3883 72.5159 30.1984V21.547Z" stroke="black" stroke-width="0.5"/>
<path d="M35.3706 41.8167L37.1771 8.65308H60.4623L62.2688 41.8167H35.3706Z" fill="#0534FE" stroke="black" stroke-width="0.5"/>
<path d="M20 41.8169L21.8255 18.8574H39.9492L41.7747 41.8169H20Z" fill="#3BC800" stroke="black" stroke-width="0.5"/>
<path d="M57.145 41.8167L58.592 22.6838H77.4728L78.9198 41.8167H57.145Z" fill="#FF8000" stroke="black" stroke-width="0.5"/>
</svg>
