<svg width="37" height="19" viewBox="0 0 37 19" fill="none" xmlns="http://www.w3.org/2000/svg">
<path d="M0.423908 10.5231C0.424343 10.5235 0.424706 10.524 0.425213 10.5244L7.97726 18.0401C8.54303 18.6031 9.45813 18.601 10.0213 18.0352C10.5844 17.4694 10.5822 16.5543 10.0164 15.9912L4.946 10.9453H35.5547C36.3529 10.9453 37 10.2983 37 9.50001C37 8.70176 36.3529 8.0547 35.5547 8.0547H4.94608L10.0164 3.00882C10.5821 2.44573 10.5843 1.53063 10.0212 0.964861C9.45805 0.398949 8.54288 0.396997 7.97718 0.959948L0.425137 8.47557C0.424706 8.476 0.424343 8.47651 0.423836 8.47694C-0.14222 9.04191 -0.140411 9.95998 0.423908 10.5231Z" fill="white"/>
</svg>
