<svg width="60" height="59" viewBox="0 0 60 59" fill="none" xmlns="http://www.w3.org/2000/svg">
<ellipse cx="30" cy="29.375" rx="30" ry="29.375" fill="#78C2DD"/>
<g clip-path="url(#clip0_8050_206155)">
<path d="M39.4727 25.3323L31.5091 13.4874C31.1636 12.9818 30.5818 12.729 30 12.729C29.4182 12.729 28.8364 12.9818 28.4909 13.5054L20.5273 25.3323H11.8182C10.8182 25.3323 10 26.1448 10 27.1379C10 27.3004 10.0182 27.4629 10.0727 27.6254L14.6909 44.3636C15.1091 45.8804 16.5091 46.9998 18.1818 46.9998H41.8182C43.4909 46.9998 44.8909 45.8804 45.3273 44.3636L49.9455 27.6254L50 27.1379C50 26.1448 49.1818 25.3323 48.1818 25.3323H39.4727ZM24.5455 25.3323L30 17.3875L35.4545 25.3323H24.5455ZM30 39.7773C28 39.7773 26.3636 38.1523 26.3636 36.1661C26.3636 34.1799 28 32.5548 30 32.5548C32 32.5548 33.6364 34.1799 33.6364 36.1661C33.6364 38.1523 32 39.7773 30 39.7773Z" fill="white"/>
</g>
<defs>
<clipPath id="clip0_8050_206155">
<path d="M10 14.7915C10 12.0301 12.2386 9.7915 15 9.7915H45C47.7614 9.7915 50 12.0301 50 14.7915V43.9582C50 46.7196 47.7614 48.9582 45 48.9582H15C12.2386 48.9582 10 46.7196 10 43.9582V14.7915Z" fill="white"/>
</clipPath>
</defs>
</svg>
