<svg width="26" height="26" viewBox="0 0 30 30" fill="none" xmlns="http://www.w3.org/2000/svg">
<path fill-rule="evenodd" clip-rule="evenodd" d="M8.41667 4.26471C7.37185 4.26471 5.90183 4.51375 4.926 4.70835C4.81379 4.73072 4.73072 4.81379 4.70835 4.926C4.51375 5.90183 4.26471 7.37185 4.26471 8.41667C4.26471 9.46149 4.51375 10.9315 4.70835 11.9073C4.73072 12.0195 4.81379 12.1026 4.926 12.125C5.90183 12.3196 7.37185 12.5686 8.41667 12.5686C9.46149 12.5686 10.9315 12.3196 11.9073 12.125C12.0195 12.1026 12.1026 12.0195 12.125 11.9073C12.3196 10.9315 12.5686 9.46149 12.5686 8.41667C12.5686 7.37185 12.3196 5.90183 12.125 4.926C12.1026 4.81379 12.0195 4.73072 11.9073 4.70835C10.9315 4.51375 9.46149 4.26471 8.41667 4.26471ZM4.48311 2.48737C5.46112 2.29234 7.12615 2 8.41667 2C9.70719 2 11.3722 2.29234 12.3502 2.48737C13.36 2.68872 14.1446 3.47338 14.346 4.48311C14.541 5.46112 14.8333 7.12615 14.8333 8.41667C14.8333 9.70719 14.541 11.3722 14.346 12.3502C14.1446 13.36 13.36 14.1446 12.3502 14.346C11.3722 14.541 9.70719 14.8333 8.41667 14.8333C7.12615 14.8333 5.46112 14.541 4.48311 14.346C3.47337 14.1446 2.68872 13.36 2.48737 12.3502C2.29234 11.3722 2 9.70719 2 8.41667C2 7.12615 2.29234 5.46112 2.48737 4.48311C2.68872 3.47337 3.47338 2.68872 4.48311 2.48737Z" fill="#0094E7"/>
<path fill-rule="evenodd" clip-rule="evenodd" d="M8.41667 19.431C7.37185 19.431 5.90183 19.6801 4.926 19.8747C4.81379 19.8971 4.73072 19.9801 4.70835 20.0923C4.51375 21.0681 4.26471 22.5382 4.26471 23.583C4.26471 24.6278 4.51375 26.0979 4.70835 27.0737C4.73072 27.1859 4.81379 27.2689 4.926 27.2912C5.90183 27.4859 7.37185 27.735 8.41667 27.735C9.46149 27.735 10.9315 27.4859 11.9073 27.2912C12.0195 27.2689 12.1026 27.1859 12.125 27.0737C12.3196 26.0979 12.5686 24.6278 12.5686 23.583C12.5686 22.5382 12.3196 21.0681 12.125 20.0923C12.1026 19.9801 12.0195 19.8971 11.9073 19.8747C10.9315 19.6801 9.46149 19.431 8.41667 19.431ZM4.48311 17.6537C5.46112 17.4586 7.12615 17.1663 8.41667 17.1663C9.70719 17.1663 11.3722 17.4586 12.3502 17.6537C13.36 17.855 14.1446 18.6397 14.346 19.6494C14.541 20.6275 14.8333 22.2925 14.8333 23.583C14.8333 24.8735 14.541 26.5385 14.346 27.5165C14.1446 28.5262 13.36 29.3109 12.3502 29.5123C11.3722 29.7073 9.70719 29.9997 8.41667 29.9997C7.12615 29.9997 5.46112 29.7073 4.48311 29.5123C3.47337 29.3109 2.68872 28.5262 2.48737 27.5165C2.29234 26.5385 2 24.8735 2 23.583C2 22.2925 2.29234 20.6275 2.48737 19.6494C2.68872 18.6397 3.47338 17.855 4.48311 17.6537Z" fill="#0094E7"/>
<path fill-rule="evenodd" clip-rule="evenodd" d="M23.5846 4.26471C22.5399 4.26471 21.0697 4.51375 20.094 4.70835C19.9817 4.73072 19.8988 4.81379 19.8764 4.926C19.6817 5.90183 19.4326 7.37185 19.4326 8.41667C19.4326 9.46149 19.6817 10.9315 19.8764 11.9073C19.8988 12.0195 19.9817 12.1026 20.094 12.125C21.0697 12.3196 22.5399 12.5686 23.5846 12.5686C24.6294 12.5686 26.0995 12.3196 27.0753 12.125C27.1875 12.1026 27.2705 12.0195 27.2929 11.9073C27.4875 10.9315 27.7366 9.46149 27.7366 8.41667C27.7366 7.37185 27.4875 5.90183 27.2929 4.926C27.2705 4.81379 27.1875 4.73072 27.0753 4.70835C26.0995 4.51375 24.6294 4.26471 23.5846 4.26471ZM19.6511 2.48737C20.6291 2.29234 22.2942 2 23.5846 2C24.8751 2 26.5402 2.29234 27.5182 2.48737C28.5279 2.68872 29.3126 3.47338 29.5139 4.48311C29.709 5.46112 30.0013 7.12615 30.0013 8.41667C30.0013 9.70719 29.709 11.3722 29.5139 12.3502C29.3126 13.36 28.5279 14.1446 27.5182 14.346C26.5402 14.541 24.8751 14.8333 23.5846 14.8333C22.2942 14.8333 20.6291 14.541 19.6511 14.346C18.6414 14.1446 17.8567 13.36 17.6553 12.3502C17.4603 11.3722 17.168 9.70719 17.168 8.41667C17.168 7.12615 17.4603 5.46112 17.6553 4.48311C17.8567 3.47337 18.6414 2.68872 19.6511 2.48737Z" fill="#0094E7"/>
<path fill-rule="evenodd" clip-rule="evenodd" d="M23.5846 19.431C22.5399 19.431 21.0697 19.6801 20.094 19.8747C19.9817 19.8971 19.8988 19.9801 19.8764 20.0923C19.6817 21.0681 19.4326 22.5382 19.4326 23.583C19.4326 24.6278 19.6817 26.0979 19.8764 27.0737C19.8988 27.1859 19.9817 27.2689 20.094 27.2912C21.0697 27.4859 22.5399 27.735 23.5846 27.735C24.6294 27.735 26.0995 27.4859 27.0753 27.2912C27.1875 27.2689 27.2705 27.1859 27.2929 27.0737C27.4875 26.0979 27.7366 24.6278 27.7366 23.583C27.7366 22.5382 27.4875 21.0681 27.2929 20.0923C27.2705 19.9801 27.1875 19.8971 27.0753 19.8747C26.0995 19.6801 24.6294 19.431 23.5846 19.431ZM19.6511 17.6537C20.6291 17.4586 22.2942 17.1663 23.5846 17.1663C24.8751 17.1663 26.5402 17.4586 27.5182 17.6537C28.5279 17.855 29.3126 18.6397 29.5139 19.6494C29.709 20.6275 30.0013 22.2925 30.0013 23.583C30.0013 24.8735 29.709 26.5385 29.5139 27.5165C29.3126 28.5262 28.5279 29.3109 27.5182 29.5123C26.5402 29.7073 24.8751 29.9997 23.5846 29.9997C22.2942 29.9997 20.6291 29.7073 19.6511 29.5123C18.6414 29.3109 17.8567 28.5262 17.6553 27.5165C17.4603 26.5385 17.168 24.8735 17.168 23.583C17.168 22.2925 17.4603 20.6275 17.6553 19.6494C17.8567 18.6397 18.6414 17.855 19.6511 17.6537Z" fill="#0094E7"/>
</svg>
