<svg width="30" height="30" viewBox="0 0 30 30" fill="none" xmlns="http://www.w3.org/2000/svg">
<path d="M13.75 17.5H11.25C11.25 11.2875 16.2875 6.25 22.5 6.25V8.75C17.6625 8.75 13.75 12.6625 13.75 17.5ZM22.5 13.75V11.25C19.05 11.25 16.25 14.05 16.25 17.5H18.75C18.75 15.425 20.425 13.75 22.5 13.75ZM8.75 5C8.75 3.6125 7.6375 2.5 6.25 2.5C4.8625 2.5 3.75 3.6125 3.75 5C3.75 6.3875 4.8625 7.5 6.25 7.5C7.6375 7.5 8.75 6.3875 8.75 5ZM14.3125 5.625H11.8125C11.5125 7.4 9.9875 8.75 8.125 8.75H4.375C3.3375 8.75 2.5 9.5875 2.5 10.625V13.75H10V10.925C12.325 10.1875 14.0625 8.1375 14.3125 5.625ZM23.75 21.25C25.1375 21.25 26.25 20.1375 26.25 18.75C26.25 17.3625 25.1375 16.25 23.75 16.25C22.3625 16.25 21.25 17.3625 21.25 18.75C21.25 20.1375 22.3625 21.25 23.75 21.25ZM25.625 22.5H21.875C20.0125 22.5 18.4875 21.15 18.1875 19.375H15.6875C15.9375 21.8875 17.675 23.9375 20 24.675V27.5H27.5V24.375C27.5 23.3375 26.6625 22.5 25.625 22.5Z" fill="#6A707D"/>
</svg>
