<svg width="30" height="30" viewBox="0 0 24 24" fill="none" xmlns="http://www.w3.org/2000/svg">
<path fill-rule="evenodd" clip-rule="evenodd" d="M22 5.9021V4.8C22 2.14903 17.5228 0 12 0C6.47715 0 2 2.14903 2 4.8V5.9021C2.43182 6.84052 3.40725 7.69611 4.80265 8.3659C6.72446 9.28837 9.3137 9.8 12 9.8C14.6863 9.8 17.2755 9.28837 19.1974 8.3659C20.5927 7.69611 21.5682 6.84052 22 5.9021ZM22 8.9678C21.4039 9.44473 20.7374 9.84516 20.0628 10.1689C17.8072 11.2517 14.9061 11.8 12 11.8C9.09392 11.8 6.19284 11.2517 3.93719 10.1689C3.26263 9.84516 2.59613 9.44473 2 8.9678V13.1021C2.43182 14.0405 3.40725 14.8961 4.80265 15.5659C6.72446 16.4884 9.3137 17 12 17C14.6863 17 17.2755 16.4884 19.1974 15.5659C20.5927 14.8961 21.5682 14.0405 22 13.1021V8.9678ZM22 16.1678C21.4039 16.6447 20.7374 17.0452 20.0628 17.3689C17.8072 18.4517 14.9061 19 12 19C9.09392 19 6.19284 18.4517 3.93719 17.3689C3.26263 17.0452 2.59613 16.6447 2 16.1678V19.2C2 21.851 6.47715 24 12 24C17.5228 24 22 21.851 22 19.2V16.1678Z" fill="#6A707D"/>
</svg>
