<svg width="144" height="104" viewBox="0 0 144 104" fill="none" xmlns="http://www.w3.org/2000/svg">
<rect x="0.5" y="0.5" width="143" height="103" fill="#F0F0F0" stroke="white" stroke-dasharray="4.4 4.4"/>
<path d="M43.2754 41.6408C43.2754 41.1362 43.6513 40.7106 44.152 40.6484L59.035 38.7983C60.1804 38.6559 61.1425 37.869 61.5094 36.7747L64.0055 29.3278C64.1421 28.9202 64.5238 28.6456 64.9536 28.6456H71.3396H79.0469C79.5009 28.6456 79.8979 28.9513 80.0138 29.3902L81.9193 36.6058C82.2307 37.7851 83.2251 38.6584 84.4347 38.815L98.5322 40.64C99.0307 40.7046 99.4038 41.1291 99.4038 41.6318V75.6709C99.4038 76.2232 98.9561 76.6709 98.4038 76.6709H44.2754C43.7231 76.6709 43.2754 76.2232 43.2754 75.6709V41.6408Z" stroke="white" stroke-width="2" stroke-linejoin="round"/>
<path d="M80.4083 57.2658C80.4083 61.8854 76.6488 65.6392 72.0001 65.6392C67.3513 65.6392 63.5918 61.8854 63.5918 57.2658C63.5918 52.6463 67.3513 48.8924 72.0001 48.8924C76.6488 48.8924 80.4083 52.6463 80.4083 57.2658Z" stroke="white" stroke-width="3"/>
</svg>
