<svg width="670" height="650" viewBox="0 0 670 650" fill="none" xmlns="http://www.w3.org/2000/svg">
<path d="M516.369 72.2938L520.884 74.0266V64.0843C520.884 56.1873 527.174 54.2983 534.003 58.2468C540.847 62.1953 546.384 71.7967 546.384 79.6795V81.0998C547.338 80.815 548.343 80.7476 549.326 80.9025C550.308 81.0573 551.244 81.4305 552.064 81.9946C554.657 83.6831 556.815 85.9601 558.362 88.6405C559.909 91.3209 560.801 94.3287 560.966 97.4193V98.0727L567.27 101.709C568.978 102.824 570.398 104.326 571.417 106.092C572.436 107.859 573.024 109.841 573.134 111.878C573.134 115.614 570.508 117.133 567.27 115.259L516.369 85.8437C514.659 84.7311 513.237 83.2299 512.218 81.4625C511.198 79.6951 510.612 77.7117 510.505 75.6742C510.505 71.9387 513.117 70.419 516.369 72.2938Z" fill="white"/>
<path d="M576.841 64.4252L584.976 69.1548C584.932 68.7919 584.908 68.4268 584.905 68.0612V65.6893C584.905 61.4283 587.873 59.7523 591.522 61.8686C593.092 62.8373 594.438 64.1302 595.469 65.6609C596.065 60.3488 600.24 58.3746 605.294 61.3005C608.183 63.1766 610.589 65.7083 612.316 68.6895C614.043 71.6708 615.043 75.0176 615.233 78.458V82.0088C615.273 83.4278 614.986 84.837 614.395 86.1277L621.197 90.062C622.267 90.7581 623.158 91.6972 623.797 92.8029C624.436 93.9086 624.805 95.1497 624.874 96.4251C624.874 98.7686 623.227 99.7202 621.197 98.5414L576.812 72.9755C575.742 72.2795 574.851 71.3404 574.212 70.2346C573.572 69.1289 573.204 67.8878 573.135 66.6125C573.163 64.1979 574.81 63.2463 576.841 64.4252Z" fill="white"/>
<path d="M334.53 649.017C519.285 649.017 669.059 562.515 669.059 455.81C669.059 349.105 519.285 262.603 334.53 262.603C149.774 262.603 0 349.105 0 455.81C0 562.515 149.774 649.017 334.53 649.017Z" fill="white"/>
<path d="M526.65 522.849C504.713 510.18 504.713 489.628 526.65 476.959C548.586 464.289 584.153 464.289 606.09 476.959C628.027 489.628 628.027 510.18 606.09 522.849C584.153 535.519 548.586 535.462 526.65 522.849Z" fill="#E0E0E0"/>
<path d="M80.4771 524.596L22.7179 491.276C19.4664 489.401 19.4664 486.347 22.7179 484.472L358.412 290.626C360.238 289.701 362.257 289.219 364.304 289.219C366.351 289.219 368.37 289.701 370.196 290.626L427.899 323.947C431.15 325.836 431.15 328.876 427.899 330.75L92.2902 524.596C90.462 525.532 88.4375 526.021 86.3837 526.021C84.3298 526.021 82.3054 525.532 80.4771 524.596Z" fill="#E0E0E0"/>
<path d="M287.888 465.212L337.497 436.508C342.609 433.567 345.164 429.69 345.164 425.827C345.164 421.963 345.164 418.924 345.164 418.924L293.695 389.893C292.263 388.958 291.069 387.7 290.211 386.22C289.353 384.74 288.854 383.079 288.754 381.371V320.155L202.144 370.235V431.409C202.243 433.117 202.742 434.778 203.601 436.258C204.459 437.738 205.652 438.996 207.085 439.931L250.873 465.17C261.081 471.107 277.665 471.107 287.888 465.212Z" fill="#C5E8F4"/>
<g opacity="0.6">
<path opacity="0.6" d="M287.887 465.212L337.496 436.508C342.608 433.567 345.164 429.69 345.164 425.827C345.164 421.963 345.164 418.924 345.164 418.924L293.694 389.893C292.262 388.958 291.068 387.7 290.21 386.22C289.352 384.74 288.853 383.079 288.753 381.371V320.155L202.143 370.235V431.409C202.242 433.117 202.741 434.778 203.6 436.258C204.458 437.738 205.651 438.996 207.084 439.931L250.872 465.17C261.08 471.107 277.664 471.107 287.887 465.212Z" fill="black"/>
</g>
<path opacity="0.3" d="M222.916 442.246V449.12L207.027 439.973C205.597 439.037 204.407 437.778 203.551 436.298C202.696 434.818 202.199 433.158 202.101 431.451V370.235L218.656 360.762C218.997 365.023 219.38 369.284 219.721 373.545L208.135 380.249V428.043C208.23 429.752 208.727 431.414 209.586 432.895C210.445 434.376 211.64 435.633 213.076 436.564L222.916 442.246Z" fill="black"/>
<path d="M208.106 427.972C208.204 429.68 208.702 431.342 209.56 432.822C210.419 434.303 211.613 435.56 213.047 436.494L250.844 458.281C261.067 464.19 277.65 464.19 287.887 458.281L337.582 429.591C347.819 423.696 347.819 414.109 337.582 408.215L299.772 386.413C298.337 385.481 297.142 384.223 296.283 382.743C295.425 381.262 294.927 379.6 294.831 377.891V330.083L208.22 380.163L208.106 427.972Z" fill="#C5E8F4"/>
<path opacity="0.3" d="M208.106 427.972C208.204 429.68 208.702 431.342 209.56 432.822C210.419 434.303 211.613 435.56 213.047 436.494L250.844 458.281C261.067 464.19 277.65 464.19 287.887 458.281L337.582 429.591C347.819 423.696 347.819 414.109 337.582 408.215L299.772 386.413C298.337 385.481 297.142 384.223 296.283 382.743C295.425 381.262 294.927 379.6 294.831 377.891V330.083L208.22 380.163L208.106 427.972Z" fill="black"/>
<path opacity="0.5" d="M309.753 392.25L299.701 386.441C298.266 385.509 297.071 384.252 296.212 382.771C295.354 381.29 294.856 379.628 294.76 377.919V330.083L208.149 380.163V427.972C208.247 429.68 208.745 431.342 209.603 432.822C210.462 434.303 211.656 435.56 213.09 436.494L223.029 442.175L309.753 392.25Z" fill="black"/>
<path d="M345.178 418.995V425.898C345.178 429.775 342.609 433.624 337.511 436.593L287.817 465.269C282.381 468.18 276.305 469.688 270.14 469.658V462.784C276.305 462.814 282.381 461.306 287.817 458.395L337.511 429.69C342.609 426.679 345.178 422.802 345.178 418.995Z" fill="#C5E8F4"/>
<path opacity="0.5" d="M345.178 418.995V425.898C345.178 429.775 342.609 433.624 337.511 436.593L287.817 465.269C282.381 468.18 276.305 469.688 270.14 469.658V462.784C276.305 462.814 282.381 461.306 287.817 458.395L337.511 429.69C342.609 426.679 345.178 422.802 345.178 418.995Z" fill="black"/>
<path d="M68.9897 487.384C70.8584 488.284 72.9118 488.733 74.9855 488.696C77.0591 488.659 79.0952 488.137 80.9306 487.171L416.014 293.652C417.811 292.479 419.306 290.9 420.379 289.042C421.452 287.184 422.073 285.099 422.19 282.956V11.8022C422.117 9.72402 421.555 7.69228 420.551 5.87133C419.547 4.05037 418.129 2.49131 416.411 1.32024C414.541 0.414578 412.484 -0.0368589 410.407 0.00262867C408.329 0.0421162 406.291 0.571414 404.456 1.54749L69.3731 195.067C67.5774 196.239 66.0835 197.818 65.0128 199.677C63.9421 201.535 63.3247 203.62 63.2109 205.762V476.916C63.2855 478.992 63.8475 481.021 64.8514 482.84C65.8553 484.658 67.273 486.215 68.9897 487.384Z" fill="#C5E8F4"/>
<path d="M80.9312 487.171L416.014 293.637C417.814 292.467 419.311 290.889 420.384 289.03C421.457 287.172 422.077 285.086 422.191 282.942V11.788C422.191 7.85369 419.422 6.24873 416.014 8.22298L80.9312 201.685C79.1345 202.858 77.639 204.437 76.566 206.295C75.493 208.153 74.8725 210.238 74.7549 212.38V483.592C74.7833 487.54 77.552 489.131 80.9312 487.171Z" fill="#C5E8F4"/>
<path opacity="0.5" d="M80.9312 487.171L416.014 293.637C417.814 292.467 419.311 290.889 420.384 289.03C421.457 287.172 422.077 285.086 422.191 282.942V11.788C422.191 7.85369 419.422 6.24873 416.014 8.22298L80.9312 201.685C79.1345 202.858 77.639 204.437 76.566 206.295C75.493 208.153 74.8725 210.238 74.7549 212.38V483.592C74.7833 487.54 77.552 489.131 80.9312 487.171Z" fill="black"/>
<path d="M80.0508 494.272C78.2977 495.026 76.4037 495.395 74.4959 495.356C72.5882 495.317 70.711 494.87 68.9902 494.045C67.2695 492.872 65.8485 491.312 64.8422 489.488C63.8359 487.665 63.2724 485.63 63.1973 483.549V458.764L74.769 465.468V490.153C74.769 493.775 77.0549 495.409 80.0508 494.272Z" fill="#C5E8F4"/>
<path opacity="0.5" d="M80.0508 494.272C78.2977 495.026 76.4037 495.395 74.4959 495.356C72.5882 495.317 70.711 494.87 68.9902 494.045C67.2695 492.872 65.8485 491.312 64.8422 489.488C63.8359 487.665 63.2724 485.63 63.1973 483.549V458.764L74.769 465.468V490.153C74.769 493.775 77.0549 495.409 80.0508 494.272Z" fill="black"/>
<path d="M74.7686 465.497V490.182C74.7686 494.116 77.5372 495.707 80.9449 493.747L416.014 300.228C417.811 299.055 419.306 297.476 420.379 295.618C421.452 293.76 422.073 291.675 422.19 289.533V264.791L74.7686 465.497Z" fill="#C5E8F4"/>
<path opacity="0.3" d="M74.7832 465.454V490.182C74.7832 494.116 77.5519 495.707 80.9595 493.747L416.014 300.228C417.811 299.055 419.307 297.476 420.38 295.618C421.453 293.76 422.073 291.675 422.191 289.533V264.791L74.7832 465.454Z" fill="black"/>
<path d="M86.3545 434.519V216.286C86.4206 215.001 86.7894 213.75 87.431 212.634C88.0725 211.518 88.9686 210.57 90.0461 209.867L406.913 26.8719C408.957 25.693 410.619 26.6446 410.619 29.0166V247.25C410.55 248.536 410.178 249.788 409.534 250.903C408.89 252.019 407.992 252.967 406.913 253.669L90.0603 436.664C88.0299 437.843 86.3545 436.891 86.3545 434.519Z" fill="#C5E8F4"/>
<path d="M86.3545 434.519V216.286C86.4206 215.001 86.7894 213.75 87.431 212.634C88.0725 211.518 88.9686 210.57 90.0461 209.867L406.913 26.8719C408.957 25.693 410.619 26.6446 410.619 29.0166V247.25C410.55 248.536 410.178 249.788 409.534 250.903C408.89 252.019 407.992 252.967 406.913 253.669L90.0603 436.664C88.0299 437.843 86.3545 436.891 86.3545 434.519Z" fill="#263238"/>
<path d="M248.473 373.005C246.786 374.102 245.382 375.582 244.376 377.325C243.369 379.067 242.788 381.023 242.68 383.032C242.68 386.725 245.278 388.231 248.473 386.384C250.161 385.286 251.566 383.803 252.573 382.058C253.579 380.313 254.159 378.355 254.266 376.343C254.28 372.65 251.696 371.158 248.473 373.005Z" fill="#C5E8F4"/>
<path opacity="0.7" d="M76.6716 206.33C75.5706 208.185 74.9416 210.282 74.84 212.437V465.497L63.1973 458.764V205.762C63.2736 203.604 63.8992 201.502 65.0147 199.654L76.6716 206.33Z" fill="black"/>
<path opacity="0.3" d="M422.148 10.7795C421.694 7.59799 419.138 6.43332 416.015 8.22293L80.9314 201.685C79.1463 202.854 77.6819 204.45 76.6719 206.33L65.0859 199.64C66.1418 197.776 67.6446 196.205 69.4591 195.067L404.542 1.5474C406.379 0.571189 408.42 0.0418681 410.5 0.00238399C412.579 -0.0371001 414.639 0.414364 416.512 1.32015C418.069 2.40582 419.377 3.811 420.349 5.44209C421.321 7.07317 421.935 8.89272 422.148 10.7795Z" fill="black"/>
<path d="M440.222 44.1427C439.727 43.8925 439.172 43.7828 438.619 43.8254C438.066 43.8679 437.535 44.0612 437.084 44.3841L120.899 227.024C119.636 227.843 118.586 228.949 117.833 230.253C117.08 231.556 116.647 233.02 116.568 234.523V451.421C116.524 452.153 116.669 452.884 116.99 453.543C117.311 454.203 117.797 454.768 118.4 455.185C119.096 455.568 122.816 457.727 123.923 458.324C124.314 458.526 124.752 458.62 125.192 458.595C125.632 458.57 126.056 458.427 126.422 458.182L442.593 275.542C443.841 274.716 444.876 273.609 445.616 272.308C446.356 271.008 446.78 269.551 446.853 268.057V50.0228C446.916 49.472 446.825 48.9145 446.589 48.4127C446.353 47.9109 445.982 47.4848 445.518 47.1822C444.808 46.7703 441.017 44.6256 440.222 44.1427Z" fill="#C5E8F4"/>
<path d="M124.945 457.884C123.738 457.884 122.744 456.392 122.744 454.56V237.648C122.834 236.274 123.24 234.939 123.929 233.746C124.619 232.554 125.574 231.537 126.72 230.774L442.99 48.1341C443.466 47.8404 444.008 47.6696 444.566 47.637C445.617 47.637 446.241 48.5318 446.241 50.0231V267.986C446.154 269.36 445.751 270.694 445.064 271.887C444.377 273.079 443.424 274.097 442.28 274.861L126.067 457.571C125.729 457.778 125.341 457.886 124.945 457.884Z" fill="#FAFAFA"/>
<path d="M444.538 48.2903C445.376 48.2903 445.503 49.3413 445.503 49.9663V267.986C445.426 269.239 445.058 270.457 444.43 271.544C443.802 272.631 442.93 273.557 441.883 274.25L125.726 456.946C125.51 457.086 125.259 457.165 125.002 457.173C124.207 457.173 123.511 455.952 123.511 454.56V237.648C123.592 236.396 123.961 235.179 124.589 234.092C125.217 233.006 126.087 232.079 127.132 231.384L443.317 48.759C443.679 48.5142 444.101 48.3719 444.538 48.3471V48.2903ZM444.538 46.9268C443.854 46.9559 443.189 47.1614 442.607 47.5233L126.365 230.163C125.119 230.99 124.085 232.098 123.345 233.398C122.605 234.698 122.18 236.154 122.105 237.648V454.503C122.105 456.691 123.327 458.537 125.016 458.537C125.517 458.527 126.007 458.385 126.436 458.125L442.593 275.542C443.84 274.717 444.876 273.609 445.616 272.309C446.356 271.008 446.78 269.552 446.852 268.057V50.0231C446.852 48.063 445.887 46.9268 444.467 46.9268H444.538Z" fill="#E0E0E0"/>
<path d="M118.385 455.185L123.696 458.196C123.157 457.75 122.733 457.183 122.456 456.541C122.18 455.899 122.06 455.201 122.105 454.503V251.808L116.568 248.556V451.435C116.525 452.164 116.669 452.891 116.987 453.547C117.306 454.204 117.787 454.768 118.385 455.185Z" fill="#F0F0F0"/>
<path d="M446.923 49.9946C446.923 47.2534 444.978 46.1455 442.664 47.5232L126.365 230.163C125.119 230.99 124.085 232.098 123.345 233.398C122.605 234.698 122.18 236.154 122.105 237.648V251.851L446.923 64.1978V49.9946Z" fill="#C5E8F4"/>
<g opacity="0.4">
<path opacity="0.4" d="M442.607 47.5231L126.365 230.163C125.096 230.958 124.051 232.062 123.326 233.373L117.846 230.191C118.557 228.892 119.594 227.8 120.856 227.024L437.083 44.3842C437.535 44.0619 438.065 43.8679 438.617 43.8229C439.17 43.7779 439.724 43.8835 440.221 44.1285C441.002 44.6115 444.58 46.6567 445.503 47.1396C445.026 46.9625 444.512 46.9049 444.007 46.9717C443.503 47.0386 443.022 47.2279 442.607 47.5231Z" fill="white"/>
</g>
<path opacity="0.15" d="M116.568 248.556V234.481C116.636 232.971 117.091 231.503 117.889 230.22L123.398 233.387C122.604 234.671 122.159 236.139 122.106 237.648V251.851L116.568 248.556Z" fill="black"/>
<path d="M380.248 213.502L190.883 322.867C189.962 323.465 189.195 324.272 188.645 325.222C188.095 326.172 187.777 327.239 187.717 328.336V382.649C187.777 383.745 188.095 384.812 188.645 385.762C189.195 386.712 189.962 387.519 190.883 388.117L196.406 391.299C197.388 391.795 198.472 392.054 199.572 392.054C200.673 392.054 201.757 391.795 202.739 391.299L392.075 281.934C392.996 281.333 393.763 280.523 394.313 279.571C394.863 278.618 395.181 277.549 395.241 276.451V222.138C395.181 221.039 394.863 219.971 394.313 219.018C393.763 218.066 392.996 217.256 392.075 216.655L386.538 213.474C385.56 212.985 384.482 212.733 383.389 212.738C382.297 212.743 381.221 213.005 380.248 213.502Z" fill="#C5E8F4"/>
<path opacity="0.5" d="M395.242 221.641C395.029 219.993 393.694 219.397 392.104 220.32L202.739 329.685C201.802 330.268 201.033 331.085 200.51 332.057L188.654 325.254C189.19 324.307 189.95 323.507 190.869 322.924L380.248 213.559C381.227 213.062 382.309 212.802 383.407 212.802C384.505 212.802 385.588 213.062 386.566 213.559L392.104 216.741C392.943 217.29 393.657 218.01 394.198 218.855C394.738 219.699 395.094 220.649 395.242 221.641Z" fill="white"/>
<path d="M202.199 391.554C201.272 391.92 200.278 392.086 199.283 392.042C198.287 391.998 197.312 391.745 196.42 391.299L190.883 388.117C189.962 387.519 189.195 386.713 188.645 385.762C188.095 384.812 187.777 383.745 187.717 382.649V328.336C187.761 327.227 188.084 326.148 188.654 325.197L200.51 332.057C199.933 332.995 199.611 334.067 199.572 335.167V389.481C199.572 391.285 200.708 392.122 202.199 391.554Z" fill="#263238"/>
<path d="M202.738 329.685L392.103 220.32C393.849 219.311 395.269 220.135 395.269 222.152V276.465C395.209 277.564 394.891 278.632 394.341 279.585C393.791 280.537 393.024 281.347 392.103 281.948L202.767 391.313C201.02 392.321 199.601 391.512 199.601 389.495V335.196C199.653 334.095 199.965 333.022 200.51 332.065C201.055 331.107 201.819 330.292 202.738 329.685Z" fill="#C5E8F4"/>
<path d="M330.042 242.491L190.898 322.867C189.979 323.449 189.218 324.25 188.683 325.197L200.538 332.057C201.062 331.085 201.83 330.267 202.767 329.685L341.912 249.323L330.042 242.491Z" fill="#455A64"/>
<path d="M341.883 249.323L202.739 329.685C201.817 330.286 201.051 331.095 200.501 332.048C199.95 333 199.632 334.069 199.572 335.167V389.481C199.572 391.498 200.992 392.321 202.739 391.299L341.883 310.937V249.323Z" fill="#37474F"/>
<path d="M234.827 323.081L306.685 281.607C309.653 279.888 312.066 281.11 312.066 284.334C311.934 286.145 311.378 287.9 310.443 289.457C309.509 291.013 308.221 292.329 306.685 293.296L234.884 334.756C231.916 336.474 229.502 335.253 229.488 332.029C229.615 330.223 230.164 328.472 231.091 326.918C232.019 325.364 233.298 324.049 234.827 323.081Z" fill="#C5E8F4"/>
<path d="M375.463 277.375L361.662 285.343L363.806 265.998C362.159 265.117 361.094 262.972 361.094 259.89C361.094 254.394 364.445 248.016 368.562 245.687C372.68 243.358 376.016 245.843 376.016 251.368C375.931 254.623 375.002 257.8 373.319 260.586L375.463 277.375Z" fill="#455A64"/>
<path d="M375.463 277.375L363.323 270.372L361.662 285.343L375.463 277.375Z" fill="#37474F"/>
<path d="M368.562 245.63C365.56 247.659 363.321 250.634 362.201 254.081L373.319 260.501C375.001 257.714 375.931 254.538 376.016 251.283C376.016 245.786 372.68 243.258 368.562 245.63Z" fill="#37474F"/>
<path d="M301.518 181.232C296.789 178.491 290.272 178.889 283.06 183.036C268.677 191.359 256.991 211.627 256.991 228.203C256.991 236.554 259.93 242.406 264.673 245.119C265.908 245.815 272.61 249.721 273.859 250.445C278.573 253.172 285.09 252.774 292.317 248.627C306.714 240.304 318.385 220.078 318.385 203.461C318.385 195.152 315.46 189.257 310.747 186.587" fill="#C5E8F4"/>
<path d="M292.317 188.405C277.92 196.714 266.249 216.94 266.249 233.572C266.249 250.204 277.92 256.936 292.317 248.627C306.715 240.318 318.4 220.079 318.386 203.461C318.372 186.843 306.686 180.082 292.317 188.405Z" fill="#C5E8F4"/>
<path d="M306.685 225.291V227.251C303.24 233.413 298.292 238.602 292.302 242.335C286.694 245.573 281.625 245.914 277.905 243.855V239.92C278.088 235.831 279.25 231.845 281.294 228.298C283.337 224.752 286.202 221.747 289.647 219.539L293.438 217.366C296.789 215.42 300.055 215.178 302.611 216.655C305.166 218.133 306.685 221.3 306.685 225.291Z" fill="#C5E8F4"/>
<path opacity="0.4" d="M301.518 181.233L310.747 186.587C306.033 183.846 299.516 184.244 292.289 188.405C282.861 193.845 274.597 204.398 270.025 215.704L260.782 210.349C265.368 198.987 273.561 188.49 283.045 183.036C290.287 178.96 296.747 178.491 301.518 181.233Z" fill="white"/>
<path opacity="0.2" d="M273.547 250.232L264.701 245.105C259.959 242.406 257.006 236.583 257.006 228.203L266.249 233.571C266.249 241.682 269.032 247.434 273.547 250.232Z" fill="black"/>
<path opacity="0.1" d="M260.811 210.349L270.054 215.704C267.664 221.364 266.373 227.428 266.249 233.571L256.991 228.203C257.126 222.064 258.422 216.006 260.811 210.349Z" fill="black"/>
<path d="M289.037 216.471C288.161 216.481 287.298 216.255 286.538 215.818C285.613 215.206 284.87 214.354 284.39 213.354C283.91 212.353 283.71 211.241 283.812 210.136C283.935 207.549 284.674 205.029 285.968 202.785C287.262 200.542 289.074 198.641 291.252 197.24C292.128 196.545 293.193 196.129 294.308 196.047C295.423 195.965 296.537 196.219 297.506 196.778C298.475 197.337 299.253 198.174 299.741 199.18C300.228 200.187 300.402 201.317 300.24 202.424C300.116 205.013 299.375 207.534 298.079 209.778C296.782 212.022 294.967 213.922 292.785 215.32C291.66 216.029 290.366 216.426 289.037 216.471Z" fill="white"/>
<path d="M302.611 216.655C300.055 215.235 296.79 215.42 293.439 217.366L289.648 219.539C286.213 221.744 283.355 224.739 281.315 228.275C279.274 231.812 278.11 235.785 277.92 239.864V243.798C281.64 245.857 286.709 245.516 292.317 242.278C298.295 238.559 303.237 233.39 306.686 227.251V225.348C306.686 221.3 305.266 218.161 302.611 216.655Z" fill="white"/>
<path d="M250.065 350.684L249.441 349.567L250.579 335.523L243.66 339.39L242.898 338.026L251.652 333.134L252.276 334.25L251.138 348.294L258.057 344.427L258.819 345.791L250.065 350.684ZM265.026 337.213L261.882 331.583L263.345 330.765L268.664 340.289L267.201 341.107L266.301 339.495L266.201 339.55C266.248 340.159 266.131 340.764 265.849 341.366C265.565 341.965 265.063 342.465 264.344 342.866C263.749 343.199 263.147 343.364 262.539 343.363C261.928 343.357 261.343 343.163 260.783 342.782C260.22 342.397 259.713 341.799 259.26 340.988L255.88 334.936L257.344 334.119L260.668 340.072C261.056 340.766 261.559 341.211 262.179 341.408C262.802 341.602 263.418 341.529 264.026 341.189C264.389 340.986 264.707 340.686 264.979 340.29C265.256 339.892 265.415 339.428 265.456 338.901C265.502 338.371 265.359 337.808 265.026 337.213ZM271.344 338.792L266.025 329.267L267.438 328.477L268.27 329.966L268.394 329.896C268.308 329.277 268.408 328.703 268.693 328.175C268.976 327.642 269.428 327.203 270.048 326.857C270.676 326.505 271.278 326.356 271.855 326.408C272.434 326.453 272.983 326.665 273.502 327.041L273.601 326.986C273.571 326.358 273.718 325.763 274.044 325.201C274.368 324.635 274.871 324.161 275.553 323.78C276.404 323.304 277.25 323.182 278.089 323.412C278.926 323.639 279.657 324.312 280.283 325.432L283.843 331.807L282.38 332.625L278.82 326.25C278.427 325.547 277.955 325.152 277.402 325.066C276.849 324.979 276.312 325.081 275.791 325.372C275.122 325.746 274.716 326.238 274.574 326.849C274.43 327.456 274.53 328.067 274.874 328.683L278.337 334.884L276.849 335.715L273.206 329.192C272.904 328.65 272.485 328.312 271.949 328.178C271.41 328.039 270.864 328.125 270.311 328.434C269.93 328.647 269.631 328.947 269.414 329.334C269.2 329.719 269.093 330.148 269.091 330.621C269.091 331.087 269.222 331.554 269.483 332.021L272.807 337.974L271.344 338.792ZM286.295 330.437L285.672 329.32L286.809 315.276L279.89 319.143L279.128 317.779L287.883 312.887L288.506 314.003L287.368 328.047L294.287 324.18L295.049 325.544L286.295 330.437ZM300.357 322.871C299.753 323.208 299.142 323.401 298.523 323.448C297.902 323.492 297.326 323.377 296.794 323.105C296.26 322.828 295.82 322.38 295.474 321.76C295.169 321.214 295.029 320.712 295.055 320.253C295.078 319.789 295.215 319.36 295.466 318.965C295.718 318.57 296.034 318.203 296.414 317.866C296.797 317.522 297.193 317.197 297.603 316.892C298.141 316.494 298.578 316.176 298.917 315.938C299.258 315.694 299.484 315.478 299.597 315.29C299.713 315.1 299.705 314.888 299.574 314.652L299.546 314.602C299.204 313.991 298.771 313.609 298.247 313.457C297.727 313.303 297.131 313.414 296.457 313.79C295.758 314.181 295.296 314.64 295.07 315.167C294.844 315.695 294.748 316.177 294.78 316.615L293.115 316.895C293.039 316.177 293.118 315.542 293.352 314.989C293.587 314.429 293.914 313.947 294.335 313.544C294.757 313.135 295.208 312.796 295.687 312.528C295.993 312.357 296.365 312.198 296.803 312.051C297.243 311.897 297.712 311.828 298.209 311.843C298.709 311.856 299.21 312.019 299.709 312.331C300.209 312.643 300.67 313.177 301.092 313.933L304.597 320.209L303.134 321.026L302.413 319.737L302.339 319.778C302.355 320.04 302.313 320.354 302.214 320.719C302.114 321.084 301.918 321.456 301.626 321.837C301.334 322.217 300.911 322.562 300.357 322.871ZM299.846 321.432C300.424 321.108 300.849 320.722 301.119 320.273C301.392 319.822 301.53 319.36 301.532 318.887C301.538 318.412 301.43 317.976 301.208 317.579L300.46 316.239C300.44 316.348 300.342 316.493 300.165 316.673C299.991 316.846 299.78 317.032 299.533 317.23C299.287 317.421 299.045 317.605 298.808 317.781C298.572 317.951 298.381 318.09 298.235 318.199C297.883 318.461 297.572 318.74 297.304 319.036C297.038 319.326 296.864 319.637 296.784 319.97C296.706 320.296 296.771 320.645 296.978 321.017C297.262 321.525 297.665 321.804 298.187 321.855C298.71 321.898 299.263 321.758 299.846 321.432ZM306.692 314.482L305.656 312.685L305.954 312.519L307.751 305.949L309.562 304.937L307.63 311.907L307.506 311.977L306.692 314.482ZM307.267 318.716L300.175 306.017L301.638 305.199L308.731 317.899L307.267 318.716ZM313.318 315.335L306.967 312.701L307.44 311.102L315.178 314.295L313.318 315.335Z" fill="white"/>
<path d="M594.504 462.372C594.504 462.372 596.392 445.782 604.642 432.914C612.891 420.046 624.221 412.007 634.799 411.169C645.377 410.331 653.924 420.06 642.608 426.793C631.292 433.525 611.187 440.286 601.93 465.284L594.504 462.372Z" fill="#C5E8F4"/>
<path opacity="0.1" d="M594.504 462.372C594.504 462.372 596.392 445.782 604.642 432.914C612.891 420.046 624.221 412.007 634.799 411.169C645.377 410.331 653.924 420.06 642.608 426.793C631.292 433.525 611.187 440.286 601.93 465.284L594.504 462.372Z" fill="black"/>
<path d="M597.613 458.068H597.499C597.431 458.042 597.369 458.002 597.316 457.951C597.263 457.9 597.221 457.839 597.192 457.771C597.163 457.704 597.147 457.631 597.147 457.558C597.146 457.485 597.16 457.412 597.187 457.344C608.347 429.846 629.588 418.37 639.271 416.154C639.344 416.138 639.419 416.135 639.493 416.148C639.567 416.16 639.637 416.187 639.7 416.226C639.764 416.266 639.818 416.317 639.862 416.378C639.905 416.439 639.936 416.508 639.953 416.58C639.983 416.725 639.955 416.876 639.875 417.001C639.796 417.125 639.671 417.214 639.527 417.248C630.042 419.435 609.213 430.713 598.238 457.784C598.177 457.892 598.084 457.977 597.972 458.028C597.859 458.079 597.734 458.093 597.613 458.068Z" fill="white"/>
<path d="M654.095 458.395C653.144 460.554 650.787 461.676 648.6 462.556C646.414 463.437 644.028 464.389 642.836 466.434C640.45 470.553 644.369 476.376 641.813 480.367C641.215 481.171 640.46 481.845 639.593 482.348C638.727 482.851 637.767 483.172 636.773 483.293C635.13 483.524 633.476 483.671 631.818 483.733C631.029 483.723 630.242 483.661 629.461 483.549C627.166 483.044 624.769 483.298 622.631 484.273C619.351 486.12 618.372 490.267 616.356 493.449C615.124 495.33 613.5 496.923 611.596 498.12C609.692 499.316 607.553 500.087 605.323 500.38C603.904 500.579 601.064 500.834 599.644 499.996C599.53 499.947 599.425 499.88 599.332 499.797C599.133 499.556 598.863 499.258 598.75 499.101C598.747 499.068 598.747 499.035 598.75 499.002C598.167 496.872 599.119 494.642 599.161 492.426V492.028C599.062 489.457 598.991 486.915 598.934 484.344C598.821 479.629 598.764 474.913 598.792 470.141C598.792 467.073 598.451 463.721 599.758 460.838C601.178 457.656 604.756 457.585 606.104 454.475C606.644 453.239 606.928 451.904 607.453 450.654C608.262 448.813 609.561 447.229 611.209 446.077C612.856 444.925 614.789 444.248 616.796 444.121C623.029 443.808 628.623 448.85 634.842 448.382C636.446 448.254 638.022 447.757 639.613 447.473C644.653 446.521 650.489 447.97 653.328 452.231C653.958 453.114 654.357 454.14 654.491 455.216C654.625 456.292 654.489 457.384 654.095 458.395Z" fill="#C5E8F4"/>
<path d="M598.124 489.173C598.003 489.137 597.899 489.058 597.831 488.951C597.763 488.844 597.736 488.716 597.755 488.591C606.359 456.279 640.35 451.663 648.344 452.188C648.47 452.216 648.583 452.288 648.66 452.391C648.738 452.494 648.776 452.622 648.767 452.751C648.759 452.88 648.704 453.002 648.613 453.094C648.523 453.186 648.402 453.243 648.273 453.253C640.478 452.685 607.197 457.259 598.777 488.861C598.729 488.987 598.635 489.089 598.513 489.148C598.392 489.206 598.252 489.215 598.124 489.173Z" fill="white"/>
<path d="M635.935 472.811C635.828 472.785 635.731 472.731 635.651 472.655C632.507 469.933 628.802 467.938 624.799 466.811C620.797 465.684 616.595 465.454 612.494 466.136C612.355 466.152 612.215 466.114 612.104 466.029C611.992 465.944 611.918 465.819 611.897 465.681C611.877 465.544 611.912 465.404 611.994 465.292C612.077 465.18 612.2 465.106 612.337 465.085C616.614 464.368 620.997 464.608 625.17 465.787C629.343 466.966 633.204 469.054 636.475 471.902C636.525 471.951 636.565 472.01 636.592 472.074C636.619 472.139 636.633 472.208 636.633 472.279C636.633 472.349 636.619 472.418 636.592 472.483C636.565 472.548 636.525 472.606 636.475 472.655C636.408 472.728 636.322 472.781 636.227 472.809C636.132 472.836 636.031 472.837 635.935 472.811Z" fill="white"/>
<path d="M545.12 279.974C539.157 290.072 533.421 298.821 529.389 303.026C521.736 306.591 503.76 312.059 496.732 312.968C495.498 313.125 494.248 312.833 493.211 312.144C490.442 310.326 488.298 310.028 485.388 309.019C483.102 308.238 482.136 307.145 481.71 307.599C481.27 308.115 481.049 308.782 481.094 309.459C481.139 310.136 481.447 310.768 481.952 311.221C483.054 312.251 484.274 313.147 485.586 313.891C482.469 314.665 479.217 314.723 476.073 314.061C469.968 312.471 467.128 315.311 471.203 321.987C472.623 324.359 478.473 328.137 490.243 327.114C494.434 326.901 498.607 326.427 502.738 325.694C514.012 323.294 526.549 320.95 534.273 318.592C537.132 317.462 539.692 315.688 541.755 313.408C554.719 298.608 559.021 288.084 564.7 278.497L564.217 262.873C555.017 262.575 550.104 271.537 545.12 279.974Z" fill="#FFA8A7"/>
<path d="M565.793 262.575C563.125 262.199 560.405 262.561 557.928 263.62C555.451 264.679 553.31 266.395 551.737 268.583C545.432 276.664 534.272 296.066 534.272 296.066C534.272 296.066 537.921 305.795 547.775 307.428L563.677 286.01C563.677 286.01 571.103 271.281 565.793 262.575Z" fill="#455A64"/>
<path d="M600.025 480.68H589.703V499.087H600.025V480.68Z" fill="#FFA8A7"/>
<path d="M564.246 479.7L553.937 480.069L553.412 460.582L564.246 460.213V479.7Z" fill="#FFA8A7"/>
<path d="M601.474 321.333C601.474 331.602 599.969 414.223 599.969 414.223C600.21 417.177 602.808 422.617 602.283 433.965C601.502 449.376 600.465 489.883 600.465 489.883C598.694 490.79 596.739 491.282 594.748 491.322C592.758 491.361 590.785 490.947 588.979 490.111C588.979 490.111 580.602 433.298 578.756 418.086C577.152 404.749 573.077 360.534 573.077 360.534L567.483 412.717C568.674 418.315 569.104 424.048 568.76 429.761C568.278 436.863 564.955 473.621 564.955 473.621C563.173 474.676 561.173 475.31 559.109 475.475C557.045 475.64 554.97 475.331 553.043 474.572C553.043 474.572 547.165 419.18 547.051 412.675C546.909 405.289 550.487 321.177 550.487 321.177L601.474 321.333Z" fill="#37474F"/>
<path d="M589.703 493.775V492.241C588.709 492.682 586.423 501.8 582.334 505.692C579.068 508.788 574.638 512.367 573.503 515.804C572.367 519.242 579.679 521.372 582.732 520.818C586.267 520.165 592.386 517.566 593.92 515.137C595.453 512.708 596.177 509.186 597.427 507.425C598.676 505.663 601.559 503.703 602.226 501.658C602.609 500.55 602.226 498.093 601.644 495.977C601.062 493.861 600.65 491.986 600.025 492.17V493.335C598.573 494.535 596.741 495.18 594.857 495.153C593.352 495.281 589.689 494.968 589.703 493.775Z" fill="#263238"/>
<path d="M553.824 476.746C553.284 476.746 552.844 477.555 551.666 478.89C549.917 480.738 547.867 482.275 545.603 483.435C541.741 485.452 534.244 488.548 530.822 490.153C528.693 491.148 528.806 493.818 530.993 495.338C533.179 496.857 538.489 497.965 544.85 496.474C548.329 495.664 552.83 492.327 555.698 492.511C558.566 492.696 563.89 492.653 566.006 491.091C568.122 489.528 567.27 486.347 566.673 483.563C566.02 480.524 565.253 475.794 564.245 476.007V477.058C563.01 479.004 556.607 479.813 553.881 478.365L553.824 476.746Z" fill="#263238"/>
<path d="M573.02 360.534C567.65 358.803 562.735 355.891 558.637 352.012C558.637 352.012 561.476 357.41 569.655 362.452L567.937 409.053L573.02 360.534Z" fill="#263238"/>
<path d="M595.695 264.18C595.695 264.18 604.214 266.14 603.603 281.536L601.828 306.051V342.837C594.246 351.359 560.653 350.805 549.081 342.141C549.081 342.141 550.387 298.608 551.168 281.863C551.722 269.946 554.462 263.952 566.162 262.646L580.545 263.271L595.695 264.18Z" fill="#C5E8F4"/>
<path d="M584.862 232.123C584.942 236.282 583.369 240.303 580.489 243.304C577.609 246.305 573.657 248.041 569.499 248.13C560.98 248.13 555.982 240.759 554.136 232.123C550.743 216.315 561.008 216.116 569.499 216.116C573.658 216.202 577.612 217.936 580.493 220.938C583.374 223.939 584.945 227.963 584.862 232.123Z" fill="#263238"/>
<path d="M592.699 238.614C592.699 238.614 590.342 250.147 589.39 252.036C588.792 253.181 587.775 254.051 586.551 254.465L586.721 246.355L592.699 238.614Z" fill="#263238"/>
<path d="M589.732 222.067C589.732 222.067 591.421 221.655 593.224 224.453C594.758 226.853 595.113 232.265 592.699 238.656L588.255 239.182L589.732 222.067Z" fill="#263238"/>
<path d="M591.364 224.411L596.816 224.51C596.854 224.158 596.818 223.801 596.711 223.463C596.604 223.125 596.428 222.813 596.195 222.546C595.962 222.28 595.676 222.064 595.355 221.913C595.034 221.762 594.686 221.679 594.332 221.669C593.586 221.68 592.871 221.966 592.323 222.472C591.776 222.978 591.434 223.668 591.364 224.411Z" fill="#263238"/>
<path d="M592.075 223.118L596.107 219.241C595.875 218.966 595.588 218.744 595.265 218.586C594.943 218.428 594.591 218.339 594.232 218.325C593.873 218.31 593.515 218.37 593.18 218.501C592.846 218.631 592.542 218.83 592.288 219.084C591.753 219.607 591.434 220.312 591.395 221.06C591.355 221.807 591.598 222.541 592.075 223.118Z" fill="#263238"/>
<path d="M586.921 239.125C587.815 239.679 589.079 237.904 590.186 236.711C591.294 235.518 594.73 234.381 596.519 238.302C598.308 242.222 595.255 246.099 592.699 247.377C588.113 249.65 586.665 246.341 586.665 246.341L586.296 264.606C579.836 274.548 565.211 274.236 570.479 264.123V258.57C568.312 258.929 566.112 259.048 563.919 258.925C560.341 258.342 558.098 255.402 557.019 251.369C555.272 244.892 554.605 239.665 556.082 226.939C557.7 212.977 573.29 212.835 581.639 218.346C589.987 223.857 586.921 239.125 586.921 239.125Z" fill="#FFA8A7"/>
<path d="M567.497 224.751C571.217 224.382 574.894 223.629 578.628 223.331C579.434 223.241 580.249 223.279 581.042 223.445C583.882 224.226 583.541 227.55 583.995 229.865C584.776 233.87 585.415 240.645 586.92 240.673C587.375 240.673 589.079 237.747 590.186 236.696C590.793 235.79 591.137 234.733 591.18 233.643C591.464 231.981 591.606 230.305 591.734 228.629C591.847 227.209 591.989 225.788 591.989 224.368C592.053 222.763 591.925 221.156 591.606 219.582C591.25 218.242 590.567 217.012 589.618 216.002L589.334 215.69C587.463 213.732 585.191 212.202 582.675 211.202C579.054 209.849 575.257 209.027 571.401 208.759C567.551 208.479 563.717 208.005 559.915 207.338C559.696 207.282 559.466 207.282 559.248 207.338C559.093 207.424 558.963 207.546 558.869 207.695C558.775 207.844 558.719 208.015 558.708 208.19C558.552 209.073 558.65 209.982 558.989 210.811C559.328 211.641 559.895 212.357 560.625 212.878C558.055 213.076 555.102 211.741 552.631 211.074C552.431 210.989 552.216 210.945 551.999 210.945C551.782 210.945 551.567 210.989 551.367 211.074C551.12 211.247 550.943 211.504 550.871 211.798C550.691 212.47 550.666 213.175 550.8 213.858C551.026 215.913 551.79 217.873 553.014 219.539C554.934 222.027 557.635 223.798 560.682 224.567C562.931 224.976 565.229 225.039 567.497 224.751Z" fill="#263238"/>
<path d="M570.492 258.569C570.492 258.569 578.472 256.893 581.255 255.345C582.912 254.438 584.258 253.052 585.117 251.368C584.698 253.06 583.95 254.653 582.916 256.055C580.885 258.783 570.492 260.785 570.492 260.785V258.569Z" fill="#F28F8F"/>
<path d="M572.41 237.051C572.4 237.269 572.434 237.486 572.509 237.691C572.584 237.895 572.699 238.083 572.847 238.243C572.994 238.402 573.173 238.531 573.37 238.622C573.568 238.712 573.782 238.763 574 238.77C574.348 238.799 574.696 238.722 574.999 238.549C575.303 238.376 575.547 238.115 575.699 237.802C575.852 237.488 575.907 237.135 575.856 236.789C575.804 236.444 575.65 236.122 575.413 235.866C575.176 235.61 574.867 235.431 574.527 235.354C574.187 235.276 573.831 235.303 573.506 235.431C573.182 235.559 572.903 235.783 572.708 236.072C572.512 236.361 572.408 236.702 572.41 237.051Z" fill="#263238"/>
<path d="M575.036 230.092L578.444 232.066C578.693 231.58 578.749 231.017 578.602 230.49C578.454 229.964 578.114 229.512 577.649 229.226C577.423 229.098 577.173 229.02 576.915 228.995C576.657 228.97 576.397 228.999 576.151 229.081C575.905 229.162 575.679 229.294 575.487 229.469C575.295 229.643 575.141 229.855 575.036 230.092Z" fill="#263238"/>
<path d="M571.203 248.556L567.554 249.976C567.627 250.227 567.751 250.459 567.918 250.66C568.085 250.86 568.292 251.024 568.525 251.141C568.758 251.259 569.012 251.327 569.273 251.341C569.533 251.356 569.794 251.317 570.038 251.226C570.535 251.012 570.932 250.617 571.148 250.121C571.364 249.626 571.384 249.066 571.203 248.556Z" fill="#F28F8F"/>
<path d="M557.728 231.612L560.852 229.112C560.711 228.895 560.525 228.71 560.308 228.569C560.091 228.428 559.846 228.335 559.591 228.294C559.335 228.254 559.074 228.268 558.824 228.336C558.574 228.403 558.341 228.522 558.14 228.686C557.723 229.037 557.451 229.53 557.375 230.07C557.299 230.61 557.425 231.159 557.728 231.612Z" fill="#263238"/>
<path d="M559.105 236.568C559.13 236.879 559.245 237.176 559.435 237.423C559.626 237.669 559.884 237.855 560.179 237.957C560.473 238.059 560.791 238.073 561.094 237.998C561.396 237.922 561.67 237.76 561.882 237.531C562.093 237.303 562.234 237.017 562.286 236.71C562.338 236.402 562.3 236.086 562.176 235.801C562.051 235.515 561.847 235.271 561.586 235.1C561.326 234.928 561.021 234.837 560.71 234.836C560.49 234.843 560.274 234.894 560.075 234.985C559.875 235.076 559.695 235.206 559.546 235.367C559.397 235.528 559.281 235.718 559.205 235.924C559.13 236.13 559.096 236.349 559.105 236.568Z" fill="#263238"/>
<path d="M567.667 235.233L567.482 245.346L561.746 244.025L567.667 235.233Z" fill="#F28F8F"/>
<path d="M431.447 319.814L440.35 314.672L443.871 310.397L434.983 315.539L431.447 319.814Z" fill="#C5E8F4"/>
<path opacity="0.4" d="M431.447 319.814L440.35 314.672L443.871 310.397L434.983 315.539L431.447 319.814Z" fill="black"/>
<path d="M455.655 333.79L464.558 328.648L471.983 322.072L463.095 327.214L455.655 333.79Z" fill="#C5E8F4"/>
<path opacity="0.4" d="M455.655 333.79L464.558 328.648L471.983 322.072L463.095 327.214L455.655 333.79Z" fill="black"/>
<path d="M531.276 351.544C533.384 354.36 534.658 357.711 534.954 361.216C532.859 358.394 531.586 355.046 531.276 351.544ZM551.964 351.814C548.968 331.418 538.021 311.264 524.987 303.722C518.725 300.1 512.932 299.972 508.289 302.685L499.912 307.528C499.75 307.606 499.593 307.697 499.444 307.798C499.074 308.011 498.705 308.238 498.365 308.48C497.676 308.953 497.03 309.486 496.434 310.07C496.346 310.167 496.251 310.258 496.15 310.34C495.88 310.611 495.624 310.896 495.383 311.193C495.066 311.541 494.767 311.906 494.488 312.286C493.882 313.082 493.337 313.923 492.856 314.8C492.614 315.226 492.359 315.695 492.131 316.22L418.981 273.98L410.093 279.107V284.789L410.845 285.229L411.555 285.627V286.834L410.135 287.672V290.981L420.884 313.706L431.504 319.856L435.039 315.596L444.41 321.277L449.792 330.495L455.727 333.918L463.152 327.327L472.268 332.611L475.335 345.252L490.626 354.072C491.384 357.293 492.332 360.466 493.466 363.574C493.565 363.901 493.693 364.213 493.821 364.568C498.904 377.934 506.983 389.367 516.098 394.637C517.194 395.275 518.338 395.826 519.52 396.284C520.147 396.531 520.787 396.744 521.437 396.923C521.997 397.085 522.566 397.213 523.141 397.307C524.934 397.634 526.771 397.634 528.565 397.307L529.303 397.122C529.656 397.051 530.003 396.951 530.339 396.824L531.135 396.511C531.413 396.409 531.684 396.285 531.944 396.142L532.711 395.744L533.08 395.517C533.147 395.495 533.209 395.462 533.264 395.418C535.295 394.253 540.293 391.356 541.656 390.589C548.414 386.669 552.787 376.755 552.787 362.736C552.786 359.08 552.511 355.429 551.964 351.814Z" fill="#C5E8F4"/>
<path d="M528.678 368.73C525.156 366.713 522.317 360.691 522.317 355.279C522.317 349.868 525.156 347.141 528.678 349.158C532.199 351.175 535.024 357.211 535.024 362.623C535.024 368.034 532.185 370.704 528.678 368.73ZM543.075 356.927C540.079 336.56 529.132 316.405 516.098 308.863C510.049 305.369 504.455 305.114 499.912 307.528C499.749 307.606 499.592 307.697 499.443 307.798C499.074 308.011 498.705 308.238 498.364 308.48C497.676 308.954 497.03 309.486 496.433 310.071C496.345 310.167 496.25 310.258 496.149 310.34C495.879 310.611 495.623 310.896 495.382 311.193C495.065 311.541 494.767 311.906 494.488 312.286C493.882 313.082 493.336 313.923 492.855 314.8C492.614 315.226 492.358 315.695 492.131 316.221C490.809 318.967 489.854 321.875 489.291 324.87L410.078 279.107V284.789L410.831 285.229L411.541 285.627V286.834L410.121 287.672V290.981L420.869 313.707L431.489 319.857L435.025 315.596L444.396 321.277L449.777 330.495L455.712 333.918L463.138 327.327L472.253 332.611L475.32 345.252L490.612 354.072C491.369 357.293 492.317 360.466 493.451 363.574C493.551 363.901 493.679 364.213 493.806 364.568C498.889 377.934 506.968 389.367 516.084 394.637C517.179 395.275 518.323 395.826 519.506 396.284C520.133 396.531 520.772 396.745 521.422 396.923C521.982 397.085 522.551 397.213 523.126 397.307C524.919 397.634 526.757 397.634 528.55 397.307L529.288 397.122C529.641 397.051 529.988 396.951 530.325 396.824L531.12 396.512C531.398 396.409 531.669 396.285 531.929 396.142L532.696 395.745L533.065 395.517C533.132 395.495 533.194 395.462 533.25 395.418C539.724 391.327 543.884 381.57 543.884 367.878C543.881 364.213 543.61 360.553 543.075 356.927Z" fill="#C5E8F4"/>
<path opacity="0.4" d="M535.025 362.608C535.025 368.02 532.185 370.761 528.678 368.73C525.171 366.699 522.317 360.691 522.317 355.279C522.317 349.868 525.157 347.141 528.678 349.172C529.692 349.784 530.575 350.59 531.277 351.544C531.582 355.051 532.855 358.405 534.954 361.231C535.005 361.688 535.029 362.148 535.025 362.608Z" fill="black"/>
<path opacity="0.4" d="M552.773 362.594C552.773 376.612 548.4 386.526 541.641 390.446C540.222 391.213 535.28 394.111 533.25 395.276C539.725 391.185 543.885 381.427 543.885 367.735C543.874 364.118 543.604 360.506 543.075 356.927C540.08 336.559 529.133 316.405 516.098 308.863C510.05 305.369 504.456 305.113 499.912 307.528L508.289 302.685C512.932 299.972 518.725 300.1 524.987 303.721C538.035 311.263 548.982 331.418 551.964 351.814C552.499 355.382 552.77 358.985 552.773 362.594Z" fill="white"/>
<path d="M543.885 367.736C543.885 381.428 539.725 391.185 533.25 395.276C535.28 394.111 540.278 391.214 541.641 390.447C548.4 386.527 552.773 376.613 552.773 362.594C552.773 362.083 552.773 361.557 552.773 361.046L543.799 366.173C543.87 366.699 543.885 367.224 543.885 367.736Z" fill="#C5E8F4"/>
<path opacity="0.1" d="M543.885 367.736C543.885 381.428 539.725 391.185 533.25 395.276C535.28 394.111 540.278 391.214 541.641 390.447C548.4 386.527 552.773 376.613 552.773 362.594C552.773 362.083 552.773 361.557 552.773 361.046L543.799 366.173C543.87 366.699 543.885 367.224 543.885 367.736Z" fill="black"/>
<path opacity="0.15" d="M489.618 330.665V333.563L410.078 287.615L411.541 286.777V285.57L489.618 330.665Z" fill="black"/>
<path opacity="0.15" d="M489.618 331.858V333.562L410.078 287.615L411.541 286.777V286.763L489.618 331.858Z" fill="black"/>
<path opacity="0.15" d="M527.607 389.299C538.694 385.895 542.52 366.309 536.153 345.551C529.785 324.794 515.635 310.726 504.547 314.129C493.46 317.533 489.634 337.119 496.002 357.877C502.369 378.634 516.52 392.702 527.607 389.299Z" stroke="black" stroke-miterlimit="10"/>
<path opacity="0.4" d="M492.117 316.178C490.795 318.924 489.841 321.832 489.278 324.827L410.064 279.065L418.953 273.937L492.117 316.178Z" fill="white"/>
<path d="M595.014 320.623C599.16 312.769 603.902 295.058 606.259 286.223C609.61 273.582 604.186 265.628 598.038 265.302C594.176 265.898 581.497 312.016 581.497 312.016C580.077 313.138 560.81 322.924 554.619 325.381C553.511 325.794 552.291 325.794 551.183 325.381C548.216 324.288 546.185 324.501 543.275 324.203C540.989 323.975 539.839 323.166 539.555 323.649C539.276 324.245 539.235 324.926 539.441 325.551C539.647 326.177 540.084 326.701 540.662 327.015C541.915 327.745 543.25 328.327 544.638 328.748C542.151 329.512 539.557 329.867 536.956 329.799C530.993 329.657 528.849 332.256 533.478 338.321C536.317 342.099 541.017 343.292 551.51 339.67C554.52 338.619 558.609 336.588 562.428 335.21C570.294 332.369 572.367 332.043 578.359 329.998C587.091 327.043 593.168 324.117 595.014 320.623Z" fill="#FFA8A7"/>
<path d="M595.695 264.18C599.315 264.677 602.794 265.501 604.938 268.441C607.082 271.381 608.8 275.542 606.699 286.905C605.09 294.842 602.937 302.658 600.252 310.298C600.252 310.298 591.833 313.905 582.859 304.758L589.021 280.925C589.021 280.925 590.072 265.302 595.695 264.18Z" fill="#455A64"/>
</svg>
