<svg width="24" height="24" viewBox="0 0 24 24" fill="none" xmlns="http://www.w3.org/2000/svg">
<path d="M6.17647 12C6.17647 11.7589 6.26943 11.5277 6.43491 11.3572C6.60038 11.1867 6.82481 11.0909 7.05882 11.0909H15V5.18182C15 3.36364 13.1366 2 11.4706 2H3.08824C2.26945 2.0009 1.48446 2.33642 0.905491 2.93293C0.326524 3.52944 0.00087586 4.33822 0 5.18182V18.8182C0.00087586 19.6618 0.326524 20.4706 0.905491 21.0671C1.48446 21.6636 2.26945 21.9991 3.08824 22H11.9118C12.7305 21.9991 13.5155 21.6636 14.0945 21.0671C14.6735 20.4706 14.9991 19.6618 15 18.8182V12.9091H7.05882C6.82481 12.9091 6.60038 12.8133 6.43491 12.6428C6.26943 12.4723 6.17647 12.2411 6.17647 12Z" fill="#6A707D"/>
<path d="M23.7073 11.275L18.7071 6.27502C18.518 6.0954 18.2662 5.99674 18.0055 6.00008C17.7447 6.00342 17.4955 6.10849 17.3111 6.29289C17.1267 6.47729 17.0216 6.72644 17.0183 6.9872C17.0149 7.24796 17.1136 7.49971 17.2932 7.68877L20.5859 10.9819H15V12.9819H20.5859L17.2932 16.275C17.1965 16.367 17.1191 16.4773 17.0656 16.5996C17.0122 16.722 16.9838 16.8537 16.9821 16.9872C16.9804 17.1207 17.0054 17.2531 17.0557 17.3768C17.106 17.5004 17.1805 17.6127 17.2749 17.7071C17.3693 17.8015 17.4816 17.876 17.6053 17.9263C17.7289 17.9766 17.8614 18.0016 17.9949 17.9999C18.1283 17.9982 18.2601 17.9698 18.3824 17.9164C18.5047 17.8629 18.6151 17.7855 18.7071 17.6888L23.7073 12.6888C23.8947 12.5013 24 12.247 24 11.9819C24 11.7168 23.8947 11.4625 23.7073 11.275Z" fill="#6A707D"/>
</svg>
