<svg width="78" height="71" viewBox="0 0 78 71" fill="none" xmlns="http://www.w3.org/2000/svg">
<path d="M13.148 60.308H12.476V62H11.51V57.8H12.476V59.498H13.172L14.276 57.8H15.302L13.928 59.828L15.344 62H14.24L13.148 60.308ZM18.8969 58.772L17.4389 62.198C17.2909 62.57 17.1069 62.832 16.8869 62.984C16.6709 63.136 16.4089 63.212 16.1009 63.212C15.9329 63.212 15.7669 63.186 15.6029 63.134C15.4389 63.082 15.3049 63.01 15.2009 62.918L15.5429 62.252C15.6149 62.316 15.6969 62.366 15.7889 62.402C15.8849 62.438 15.9789 62.456 16.0709 62.456C16.1989 62.456 16.3029 62.424 16.3829 62.36C16.4629 62.3 16.5349 62.198 16.5989 62.054L16.6109 62.024L15.2129 58.772H16.1789L17.0849 60.962L17.9969 58.772H18.8969ZM22.5584 58.772V62H21.6224V59.54H20.2784V62H19.3484V58.772H22.5584ZM23.4559 58.772H24.3859V60.692L25.9579 58.772H26.8159V62H25.8859V60.08L24.3199 62H23.4559V58.772ZM31.8808 60.314C32.2608 60.442 32.4508 60.698 32.4508 61.082C32.4508 61.374 32.3408 61.6 32.1208 61.76C31.9008 61.92 31.5728 62 31.1368 62H29.4148V58.772H31.0648C31.4688 58.772 31.7848 58.846 32.0128 58.994C32.2408 59.138 32.3548 59.342 32.3548 59.606C32.3548 59.766 32.3128 59.908 32.2288 60.032C32.1488 60.152 32.0328 60.246 31.8808 60.314ZM30.2728 60.098H30.9808C31.3088 60.098 31.4728 59.982 31.4728 59.75C31.4728 59.522 31.3088 59.408 30.9808 59.408H30.2728V60.098ZM31.0588 61.364C31.4028 61.364 31.5748 61.246 31.5748 61.01C31.5748 60.886 31.5348 60.796 31.4548 60.74C31.3748 60.68 31.2488 60.65 31.0768 60.65H30.2728V61.364H31.0588ZM34.6833 62.048C34.3393 62.048 34.0293 61.978 33.7533 61.838C33.4813 61.694 33.2673 61.496 33.1113 61.244C32.9593 60.992 32.8833 60.706 32.8833 60.386C32.8833 60.066 32.9593 59.78 33.1113 59.528C33.2673 59.276 33.4813 59.08 33.7533 58.94C34.0293 58.796 34.3393 58.724 34.6833 58.724C35.0233 58.724 35.3193 58.796 35.5713 58.94C35.8273 59.08 36.0133 59.282 36.1293 59.546L35.4033 59.936C35.2353 59.64 34.9933 59.492 34.6773 59.492C34.4333 59.492 34.2313 59.572 34.0713 59.732C33.9113 59.892 33.8313 60.11 33.8313 60.386C33.8313 60.662 33.9113 60.88 34.0713 61.04C34.2313 61.2 34.4333 61.28 34.6773 61.28C34.9973 61.28 35.2393 61.132 35.4033 60.836L36.1293 61.232C36.0133 61.488 35.8273 61.688 35.5713 61.832C35.3193 61.976 35.0233 62.048 34.6833 62.048ZM39.795 60.398C39.795 60.41 39.789 60.494 39.777 60.65H37.335C37.379 60.85 37.483 61.008 37.647 61.124C37.811 61.24 38.015 61.298 38.259 61.298C38.427 61.298 38.575 61.274 38.703 61.226C38.835 61.174 38.957 61.094 39.069 60.986L39.567 61.526C39.263 61.874 38.819 62.048 38.235 62.048C37.871 62.048 37.549 61.978 37.269 61.838C36.989 61.694 36.773 61.496 36.621 61.244C36.469 60.992 36.393 60.706 36.393 60.386C36.393 60.07 36.467 59.786 36.615 59.534C36.767 59.278 36.973 59.08 37.233 58.94C37.497 58.796 37.791 58.724 38.115 58.724C38.431 58.724 38.717 58.792 38.973 58.928C39.229 59.064 39.429 59.26 39.573 59.516C39.721 59.768 39.795 60.062 39.795 60.398ZM38.121 59.432C37.909 59.432 37.731 59.492 37.587 59.612C37.443 59.732 37.355 59.896 37.323 60.104H38.913C38.881 59.9 38.793 59.738 38.649 59.618C38.505 59.494 38.329 59.432 38.121 59.432ZM37.491 58.328C37.371 58.328 37.271 58.29 37.191 58.214C37.111 58.134 37.071 58.034 37.071 57.914C37.071 57.794 37.111 57.696 37.191 57.62C37.271 57.54 37.371 57.5 37.491 57.5C37.611 57.5 37.709 57.54 37.785 57.62C37.865 57.696 37.905 57.794 37.905 57.914C37.905 58.034 37.865 58.134 37.785 58.214C37.709 58.29 37.611 58.328 37.491 58.328ZM38.703 58.328C38.583 58.328 38.483 58.29 38.403 58.214C38.327 58.134 38.289 58.034 38.289 57.914C38.289 57.794 38.327 57.696 38.403 57.62C38.483 57.54 38.583 57.5 38.703 57.5C38.823 57.5 38.923 57.54 39.003 57.62C39.083 57.696 39.123 57.794 39.123 57.914C39.123 58.034 39.083 58.134 39.003 58.214C38.923 58.29 38.823 58.328 38.703 58.328ZM43.7237 62.048C43.3837 62.048 43.0777 61.978 42.8057 61.838C42.5377 61.694 42.3277 61.496 42.1757 61.244C42.0237 60.992 41.9477 60.706 41.9477 60.386C41.9477 60.066 42.0237 59.78 42.1757 59.528C42.3277 59.276 42.5377 59.08 42.8057 58.94C43.0777 58.796 43.3837 58.724 43.7237 58.724C44.0637 58.724 44.3677 58.796 44.6357 58.94C44.9037 59.08 45.1137 59.276 45.2657 59.528C45.4177 59.78 45.4937 60.066 45.4937 60.386C45.4937 60.706 45.4177 60.992 45.2657 61.244C45.1137 61.496 44.9037 61.694 44.6357 61.838C44.3677 61.978 44.0637 62.048 43.7237 62.048ZM43.7237 61.28C43.9637 61.28 44.1597 61.2 44.3117 61.04C44.4677 60.876 44.5457 60.658 44.5457 60.386C44.5457 60.114 44.4677 59.898 44.3117 59.738C44.1597 59.574 43.9637 59.492 43.7237 59.492C43.4837 59.492 43.2857 59.574 43.1297 59.738C42.9737 59.898 42.8957 60.114 42.8957 60.386C42.8957 60.658 42.9737 60.876 43.1297 61.04C43.2857 61.2 43.4837 61.28 43.7237 61.28ZM46.1375 58.772H47.0675V60.032H48.4715V58.772H49.4075V62H48.4715V60.794H47.0675V62H46.1375V58.772ZM53.3995 58.772V62H52.4635V59.54H51.4435L51.4135 60.11C51.3975 60.534 51.3575 60.886 51.2935 61.166C51.2295 61.446 51.1255 61.666 50.9815 61.826C50.8375 61.986 50.6375 62.066 50.3815 62.066C50.2455 62.066 50.0835 62.042 49.8955 61.994L49.9435 61.226C50.0075 61.234 50.0535 61.238 50.0815 61.238C50.2215 61.238 50.3255 61.188 50.3935 61.088C50.4655 60.984 50.5135 60.854 50.5375 60.698C50.5615 60.538 50.5795 60.328 50.5915 60.068L50.6395 58.772H53.3995ZM55.5536 58.724C56.0536 58.724 56.4376 58.844 56.7056 59.084C56.9736 59.32 57.1076 59.678 57.1076 60.158V62H56.2316V61.598C56.0556 61.898 55.7276 62.048 55.2476 62.048C54.9996 62.048 54.7836 62.006 54.5996 61.922C54.4196 61.838 54.2816 61.722 54.1856 61.574C54.0896 61.426 54.0416 61.258 54.0416 61.07C54.0416 60.77 54.1536 60.534 54.3776 60.362C54.6056 60.19 54.9556 60.104 55.4276 60.104H56.1716C56.1716 59.9 56.1096 59.744 55.9856 59.636C55.8616 59.524 55.6756 59.468 55.4276 59.468C55.2556 59.468 55.0856 59.496 54.9176 59.552C54.7536 59.604 54.6136 59.676 54.4976 59.768L54.1616 59.114C54.3376 58.99 54.5476 58.894 54.7916 58.826C55.0396 58.758 55.2936 58.724 55.5536 58.724ZM55.4816 61.418C55.6416 61.418 55.7836 61.382 55.9076 61.31C56.0316 61.234 56.1196 61.124 56.1716 60.98V60.65H55.5296C55.1456 60.65 54.9536 60.776 54.9536 61.028C54.9536 61.148 54.9996 61.244 55.0916 61.316C55.1876 61.384 55.3176 61.418 55.4816 61.418ZM57.9207 58.772H58.8507V60.692L60.4227 58.772H61.2807V62H60.3507V60.08L58.7847 62H57.9207V58.772ZM59.5407 58.424C58.8367 58.424 58.4827 58.114 58.4787 57.494H59.0907C59.0947 57.634 59.1327 57.744 59.2047 57.824C59.2807 57.9 59.3907 57.938 59.5347 57.938C59.6787 57.938 59.7887 57.9 59.8647 57.824C59.9447 57.744 59.9847 57.634 59.9847 57.494H60.6087C60.6047 58.114 60.2487 58.424 59.5407 58.424ZM62.1805 58.772H63.1105V60.032H64.5145V58.772H65.4505V62H64.5145V60.794H63.1105V62H62.1805V58.772ZM66.2085 57.8H67.3245L67.1385 60.542H66.3945L66.2085 57.8ZM66.7665 62.048C66.6025 62.048 66.4645 61.996 66.3525 61.892C66.2445 61.784 66.1905 61.654 66.1905 61.502C66.1905 61.35 66.2445 61.224 66.3525 61.124C66.4605 61.02 66.5985 60.968 66.7665 60.968C66.9345 60.968 67.0725 61.02 67.1805 61.124C67.2885 61.224 67.3425 61.35 67.3425 61.502C67.3425 61.654 67.2865 61.784 67.1745 61.892C67.0665 61.996 66.9305 62.048 66.7665 62.048Z" fill="black"/>
<path d="M18.1 54.152V56H9.532V54.53L14.908 48.048H9.644V46.2H17.89V47.67L12.528 54.152H18.1ZM26.9339 48.468V56H24.8619V55.104C24.5726 55.4307 24.2272 55.6827 23.8259 55.86C23.4246 56.028 22.9906 56.112 22.5239 56.112C21.5346 56.112 20.7506 55.8273 20.1719 55.258C19.5932 54.6887 19.3039 53.844 19.3039 52.724V48.468H21.4879V52.402C21.4879 53.6153 21.9966 54.222 23.0139 54.222C23.5366 54.222 23.9566 54.054 24.2739 53.718C24.5912 53.3727 24.7499 52.864 24.7499 52.192V48.468H26.9339ZM38.6032 48.356C39.5459 48.356 40.2926 48.636 40.8432 49.196C41.4032 49.7467 41.6832 50.5773 41.6832 51.688V56H39.4992V52.024C39.4992 51.4267 39.3732 50.9833 39.1212 50.694C38.8786 50.3953 38.5286 50.246 38.0712 50.246C37.5579 50.246 37.1519 50.414 36.8532 50.75C36.5546 51.0767 36.4052 51.5667 36.4052 52.22V56H34.2212V52.024C34.2212 50.8387 33.7452 50.246 32.7932 50.246C32.2892 50.246 31.8879 50.414 31.5892 50.75C31.2906 51.0767 31.1412 51.5667 31.1412 52.22V56H28.9572V48.468H31.0432V49.336C31.3232 49.0187 31.6639 48.776 32.0652 48.608C32.4759 48.44 32.9239 48.356 33.4092 48.356C33.9412 48.356 34.4219 48.4633 34.8512 48.678C35.2806 48.8833 35.6259 49.1867 35.8872 49.588C36.1952 49.196 36.5826 48.8927 37.0492 48.678C37.5252 48.4633 38.0432 48.356 38.6032 48.356ZM51.7328 54.152V56H43.1648V54.53L48.5408 48.048H43.2768V46.2H51.5228V47.67L46.1608 54.152H51.7328ZM56.1124 48.356C57.2791 48.356 58.1751 48.636 58.8004 49.196C59.4257 49.7467 59.7384 50.582 59.7384 51.702V56H57.6944V55.062C57.2837 55.762 56.5184 56.112 55.3984 56.112C54.8197 56.112 54.3157 56.014 53.8864 55.818C53.4664 55.622 53.1444 55.3513 52.9204 55.006C52.6964 54.6607 52.5844 54.2687 52.5844 53.83C52.5844 53.13 52.8457 52.5793 53.3684 52.178C53.9004 51.7767 54.7171 51.576 55.8184 51.576H57.5544C57.5544 51.1 57.4097 50.736 57.1204 50.484C56.8311 50.2227 56.3971 50.092 55.8184 50.092C55.4171 50.092 55.0204 50.1573 54.6284 50.288C54.2457 50.4093 53.9191 50.5773 53.6484 50.792L52.8644 49.266C53.2751 48.9767 53.7651 48.7527 54.3344 48.594C54.9131 48.4353 55.5057 48.356 56.1124 48.356ZM55.9444 54.642C56.3177 54.642 56.6491 54.558 56.9384 54.39C57.2277 54.2127 57.4331 53.956 57.5544 53.62V52.85H56.0564C55.1604 52.85 54.7124 53.144 54.7124 53.732C54.7124 54.012 54.8197 54.236 55.0344 54.404C55.2584 54.5627 55.5617 54.642 55.9444 54.642ZM64.949 53.046L63.899 54.082V56H61.715V45.612H63.899V51.492L67.091 48.468H69.695L66.559 51.66L69.975 56H67.329L64.949 53.046Z" fill="black"/>
<path d="M43.4065 11.5552C43.4065 8.99765 41.2868 6.92432 38.672 6.92432C36.0572 6.92432 33.9375 8.99765 33.9375 11.5552V18.6797C33.9375 21.2373 36.0572 23.3106 38.672 23.3106C41.2868 23.3106 43.4065 21.2373 43.4065 18.6797V11.5552Z" stroke="black" stroke-width="0.5"/>
<path d="M26.5725 23.2343C26.5725 21.3372 25.1593 19.7993 23.4161 19.7993C21.6729 19.7993 20.2598 21.3372 20.2598 23.2343V33.9211C20.2598 35.8182 21.6729 37.3561 23.4161 37.3561C25.1593 37.3561 26.5725 35.8182 26.5725 33.9211V23.2343Z" stroke="black" stroke-width="0.5"/>
<path d="M58.1363 25.7787C58.1363 23.7692 56.4876 22.1401 54.4539 22.1401C52.4202 22.1401 50.7715 23.7692 50.7715 25.7787V33.7174C50.7715 35.7269 52.4202 37.356 54.4539 37.356C56.4876 37.356 58.1363 35.7269 58.1363 33.7174V25.7787Z" stroke="black" stroke-width="0.5"/>
<path d="M27.625 44.3785L29.1089 13.9468H48.2355L49.7194 44.3785H27.625Z" fill="#0534FE" stroke="black" stroke-width="0.5"/>
<path d="M15 44.3787L16.4995 23.3105H31.3865L32.886 44.3787H15Z" fill="#3BC800" stroke="black" stroke-width="0.5"/>
<path d="M45.5117 44.3785L46.7003 26.8218H62.2092L63.3977 44.3785H45.5117Z" fill="#F57E23" stroke="black" stroke-width="0.5"/>
</svg>
