<svg width="24" height="24" viewBox="0 0 24 24" fill="none" xmlns="http://www.w3.org/2000/svg">
<g clip-path="url(#clip0_8050_206011)">
<path fill-rule="evenodd" clip-rule="evenodd" d="M17.0957 13.2324C18.5902 14.247 19.6375 15.6215 19.6375 17.4542V20.727H24.0012V17.4542C24.0012 15.0761 20.1066 13.6688 17.0957 13.2324Z" fill="#6A707D"/>
<path d="M8.72692 11.9997C11.1369 11.9997 13.0905 10.0461 13.0905 7.6361C13.0905 5.22613 11.1369 3.27246 8.72692 3.27246C6.31695 3.27246 4.36328 5.22613 4.36328 7.6361C4.36328 10.0461 6.31695 11.9997 8.72692 11.9997Z" fill="#6A707D"/>
<path fill-rule="evenodd" clip-rule="evenodd" d="M15.2712 11.9997C17.6821 11.9997 19.6349 10.047 19.6349 7.6361C19.6349 5.22519 17.6821 3.27246 15.2712 3.27246C14.7585 3.27246 14.2785 3.38155 13.8203 3.53428C14.7258 4.65791 15.2712 6.087 15.2712 7.6361C15.2712 9.18519 14.7258 10.6143 13.8203 11.7379C14.2785 11.8906 14.7585 11.9997 15.2712 11.9997Z" fill="#6A707D"/>
<path fill-rule="evenodd" clip-rule="evenodd" d="M8.72727 13.0908C5.81454 13.0908 0 14.5526 0 17.4545V20.7272H17.4545V17.4545C17.4545 14.5526 11.64 13.0908 8.72727 13.0908Z" fill="#6A707D"/>
</g>
<defs>
<clipPath id="clip0_8050_206011">
<rect width="24" height="24" fill="white"/>
</clipPath>
</defs>
</svg>
