<svg width="28" height="22" viewBox="0 0 28 22" fill="none" xmlns="http://www.w3.org/2000/svg">
<path d="M9 1C9 0.447715 8.55228 0 8 0C7.44772 0 7 0.447715 7 1L9 1ZM7.29289 21.7071C7.68342 22.0976 8.31658 22.0976 8.70711 21.7071L15.0711 15.3431C15.4616 14.9526 15.4616 14.3195 15.0711 13.9289C14.6805 13.5384 14.0474 13.5384 13.6569 13.9289L8 19.5858L2.34315 13.9289C1.95262 13.5384 1.31946 13.5384 0.928932 13.9289C0.538408 14.3195 0.538408 14.9526 0.928932 15.3431L7.29289 21.7071ZM7 1L7 21H9V1L7 1Z" fill="white"/>
<path d="M19 21C19 21.5523 19.4477 22 20 22C20.5523 22 21 21.5523 21 21H19ZM20.7071 0.292892C20.3166 -0.0976315 19.6834 -0.0976315 19.2929 0.292892L12.9289 6.65685C12.5384 7.04738 12.5384 7.68054 12.9289 8.07107C13.3195 8.46159 13.9526 8.46159 14.3431 8.07107L20 2.41421L25.6569 8.07107C26.0474 8.46159 26.6805 8.46159 27.0711 8.07107C27.4616 7.68054 27.4616 7.04738 27.0711 6.65685L20.7071 0.292892ZM21 21V1H19V21H21Z" fill="white"/>
</svg>
