<svg width="24" height="24" viewBox="0 0 24 24" fill="none" xmlns="http://www.w3.org/2000/svg">
<path d="M2 5H4.22222H22" stroke="#EB2316" stroke-width="2" stroke-linecap="round" stroke-linejoin="round"/>
<path d="M7.42857 5.4V3.2C7.42857 2.61652 7.66939 2.05695 8.09804 1.64436C8.5267 1.23178 9.10808 1 9.71429 1H14.2857C14.8919 1 15.4733 1.23178 15.902 1.64436C16.3306 2.05695 16.5714 2.61652 16.5714 3.2V5.4M20 5.4V20.8C20 21.3835 19.7592 21.9431 19.3305 22.3556C18.9019 22.7682 18.3205 23 17.7143 23H6.28571C5.67951 23 5.09812 22.7682 4.66947 22.3556C4.24082 21.9431 4 21.3835 4 20.8V5.4H20Z" stroke="#EB2316" stroke-width="2" stroke-linecap="round" stroke-linejoin="round"/>
<path d="M9 10V18" stroke="#EB2316" stroke-width="2" stroke-linecap="round" stroke-linejoin="round"/>
<path d="M15 10V18" stroke="#EB2316" stroke-width="2" stroke-linecap="round" stroke-linejoin="round"/>
</svg>
